<svg width="24" height="24" viewBox="0 0 24 24" fill="none" xmlns="http://www.w3.org/2000/svg">
<rect width="24" height="24" rx="4" fill="#8196EA"/>
<g clip-path="url(#clip0_16_944)">
<path d="M16.1663 16.1698C16.0452 15.865 15.8573 15.5913 15.6163 15.3688C15.2104 14.9914 14.6768 14.7816 14.1226 14.7812H9.8778C9.32363 14.7812 8.78926 14.9917 8.38301 15.3688C8.14342 15.5917 7.95488 15.8656 7.83301 16.1698" stroke="#FAFBFC" stroke-width="1.5" stroke-linecap="round" stroke-linejoin="round"/>
<path d="M12 12.5234C13.2944 12.5234 14.3438 11.4741 14.3438 10.1797C14.3438 8.88527 13.2944 7.83594 12 7.83594C10.7056 7.83594 9.65625 8.88527 9.65625 10.1797C9.65625 11.4741 10.7056 12.5234 12 12.5234Z" stroke="#FAFBFC" stroke-width="1.5" stroke-linecap="round" stroke-linejoin="round"/>
</g>
<defs>
<clipPath id="clip0_16_944">
<rect width="20" height="20" fill="white" transform="translate(2 2)"/>
</clipPath>
</defs>
</svg>
