<svg width="105" height="81" viewBox="0 0 105 81" fill="none" xmlns="http://www.w3.org/2000/svg">
<path d="M56 80.1328C78.0907 80.1328 96 62.2588 96 40.1328C96 18.0068 78.0118 0.132812 56 0.132812C33.9093 0.132812 16 18.0068 16 40.1328C16 62.2588 33.9093 80.1328 56 80.1328Z" fill="#2A2E37"/>
<path opacity="0.4" d="M101.802 16.4949C103.531 16.4949 104.932 15.0935 104.932 13.3646C104.932 11.6358 103.531 10.2344 101.802 10.2344C100.073 10.2344 98.6719 11.6358 98.6719 13.3646C98.6719 15.0935 100.073 16.4949 101.802 16.4949Z" fill="#81DCEA"/>
<path d="M90.3838 4.2755C91.5645 4.2755 92.5216 3.31839 92.5216 2.13775C92.5216 0.957102 91.5645 0 90.3838 0C89.2032 0 88.2461 0.957102 88.2461 2.13775C88.2461 3.31839 89.2032 4.2755 90.3838 4.2755Z" fill="#2A2E37"/>
<path d="M12.9659 16.4161C14.1465 16.4161 15.1036 15.459 15.1036 14.2784C15.1036 13.0977 14.1465 12.1406 12.9659 12.1406C11.7852 12.1406 10.8281 13.0977 10.8281 14.2784C10.8281 15.459 11.7852 16.4161 12.9659 16.4161Z" fill="#32394F"/>
<path opacity="0.4" d="M3.97011 62.6277C6.16273 62.6277 7.94021 60.8502 7.94021 58.6576C7.94021 56.465 6.16273 54.6875 3.97011 54.6875C1.77748 54.6875 0 56.465 0 58.6576C0 60.8502 1.77748 62.6277 3.97011 62.6277Z" fill="#81DCEA"/>
<path d="M46.517 55H30.483C29.664 55 29 54.277 29 53.385V51.348C29 45.633 33.253 41 38.5 41C43.747 41 48 45.633 48 51.348V53.385C48 54.277 47.336 55 46.517 55Z" fill="#8E94A7"/>
<path d="M38.503 39.001C42.0912 39.001 45 36.0922 45 32.504C45 28.9158 42.0912 26.007 38.503 26.007C34.9148 26.007 32.006 28.9158 32.006 32.504C32.006 36.0922 34.9148 39.001 38.503 39.001Z" fill="#8196EA"/>
<path d="M81.517 55H65.483C64.664 55 64 54.277 64 53.385V51.348C64 45.633 68.253 41 73.5 41C78.747 41 83 45.633 83 51.348V53.385C83 54.277 82.336 55 81.517 55Z" fill="#8E94A7"/>
<path d="M73.503 39.001C77.0912 39.001 80 36.0922 80 32.504C80 28.9158 77.0912 26.007 73.503 26.007C69.9148 26.007 67.006 28.9158 67.006 32.504C67.006 36.0922 69.9148 39.001 73.503 39.001Z" fill="#8196EA"/>
<path d="M67.814 58H44.186C42.978 58 42 57.019 42 55.808V53.043C42 45.288 48.267 39 56 39C63.733 39 70 45.288 70 53.043V55.808C70 57.019 69.022 58 67.814 58Z" fill="#8E94A7"/>
<path opacity="0.3" d="M47 53.043C47 48.057 51.038 44 56 44C58.451 44 60.482 42.233 60.909 39.905C59.379 39.33 57.73 39 56 39C48.267 39 42 45.288 42 53.043V55.808C42 56.723 42.56 57.506 43.354 57.834C45.453 57.24 47 55.332 47 53.043Z" fill="white"/>
<path opacity="0.15" d="M70 55.808V53.043C70 48.94 68.235 45.26 65.438 42.692C63.556 44.129 62.903 46.742 64.017 48.927C64.663 50.193 57.994 48.5631 58 50.0001L57 53C54.239 53 52 55.238 52 58H67.814C69.022 58 70 57.019 70 55.808Z" fill="#051140"/>
<path d="M56 37C60.9706 37 65 32.9706 65 28C65 23.0294 60.9706 19 56 19C51.0294 19 47 23.0294 47 28C47 32.9706 51.0294 37 56 37Z" fill="#8196EA"/>
<path d="M48.014 46.2049C49.021 45.0219 50.283 44.0639 51.714 43.4189" stroke="white" stroke-width="1.875" stroke-miterlimit="10" stroke-linecap="round" stroke-linejoin="round"/>
</svg>
