<svg width="93" height="83" viewBox="0 0 93 83" fill="none" xmlns="http://www.w3.org/2000/svg">
<path d="M52 83C74.0907 83 92 65.126 92 43C92 20.874 74.0118 3 52 3C29.9093 3 12 20.874 12 43C12 65.126 29.9093 83 52 83Z" fill="#2A2E37"/>
<path d="M86 60H18C22.3113 51.9072 35.8763 46.0001 52 46.0001C68.0887 45.9706 81.6887 51.8777 86 60Z" fill="#222222"/>
<path d="M28.8179 30.9067C34.8042 36.0625 38.3352 42.3342 38.8513 50.1645" stroke="#9CA4B5" stroke-width="4" stroke-miterlimit="10" stroke-linecap="round" stroke-linejoin="round"/>
<path d="M28.4807 30.9288C28.4807 30.9288 30.125 29.0105 32.2019 27.1293L31.8688 26.3631L32.8946 26.525C33.5873 25.9206 34.3259 25.3381 35.0667 24.8692C33.596 24.0342 32.3484 24.1494 31.2267 24.8985C29.1842 26.2109 28.6872 28.6976 28.4807 30.9288Z" fill="#26A17B"/>
<path d="M29.1787 30.5568C29.1787 30.5568 31.258 29.9709 33.6144 29.6069L33.737 28.9L34.385 29.501C35.1783 29.3946 35.9725 29.3337 36.6999 29.3423C36.0386 28.0598 35.1198 27.555 33.9381 27.5553C31.9149 27.5265 30.3771 29.0791 29.1787 30.5568Z" fill="#26A17B"/>
<path d="M28.7373 31.3387C28.7373 31.3387 28.7306 28.6573 29.1056 25.7411L28.303 25.3704L29.2237 24.807C29.3642 23.8498 29.5723 22.8686 29.8281 22C28.0851 22.3521 27.1714 23.2789 26.7668 24.6731C26.0863 27.0725 27.4044 29.4103 28.7373 31.3387Z" fill="#26A17B"/>
<path d="M29.1641 31.125C29.1641 31.125 27.566 33.0878 26.0668 35.4577L25.2673 35.246L25.6044 36.2167C25.1428 37.0211 24.7044 37.8477 24.3564 38.6499C23.2857 37.3526 23.1706 36.105 23.7142 34.8445C24.649 32.6674 27.017 31.7349 29.1641 31.125Z" fill="#26A17B"/>
<path d="M29.0893 30.8586C29.0893 30.8586 26.462 31.3188 23.6388 32.2146L23.1249 31.4974L22.7354 32.5049C21.8098 32.8184 20.885 33.1773 20.0751 33.6021C20.1088 31.8289 20.8604 30.7461 22.166 30.1071C24.4165 28.9725 26.9562 29.8548 29.0893 30.8586Z" fill="#26A17B"/>
<path d="M28.2568 30.147C27.8545 29.76 27.842 29.1201 28.229 28.7178C28.616 28.3154 29.2559 28.303 29.6582 28.6899C30.0606 29.0769 30.073 29.7168 29.686 30.1191C29.2991 30.5215 28.6592 30.5339 28.2568 30.147Z" fill="url(#paint0_linear_16_989)"/>
<path d="M26.8543 31.8236C26.2873 31.2783 26.2698 30.3766 26.8151 29.8097C27.3604 29.2428 28.262 29.2252 28.8289 29.7705C29.3959 30.3158 29.4134 31.2174 28.8681 31.7843C28.3229 32.3513 27.4212 32.3688 26.8543 31.8236Z" fill="url(#paint1_linear_16_989)"/>
<path d="M28.8958 31.6173C28.53 31.2655 28.5187 30.6838 28.8705 30.318C29.2223 29.9522 29.804 29.9409 30.1697 30.2927C30.5355 30.6445 30.5468 31.2262 30.195 31.592C29.8432 31.9577 29.2615 31.9691 28.8958 31.6173Z" fill="url(#paint2_linear_16_989)"/>
<path opacity="0.4" d="M32.6328 57.2376C33.6149 57.0292 34.6566 57.3269 35.4006 57.9816" stroke="#D5DAE8" stroke-miterlimit="10" stroke-linecap="round" stroke-linejoin="round"/>
<path opacity="0.4" d="M56.5625 55.2804C58.2026 53.7923 61.1629 53.2269 63.5631 53.9114C64.0831 54.0602 64.5631 54.2685 65.1232 54.2387C65.7232 54.209 66.2033 53.9114 66.6433 53.6138C67.0834 53.3162 67.4834 52.9888 68.0434 52.8102C68.6035 52.6614 69.3235 52.7507 69.6036 53.1376" stroke="#D5DAE8" stroke-miterlimit="10" stroke-linecap="round" stroke-linejoin="round"/>
<path opacity="0.4" d="M68.4336 56.8828C70.7167 55.8412 73.7162 55.5138 76.4022 55.9602" stroke="#D5DAE8" stroke-miterlimit="10" stroke-linecap="round" stroke-linejoin="round"/>
<path opacity="0.4" d="M34.1484 55.2474C37.4749 55.3069 40.9023 54.9795 43.624 54.4141" stroke="#D5DAE8" stroke-miterlimit="10" stroke-linecap="round" stroke-linejoin="round"/>
<path opacity="0.4" d="M56.2578 50.3605C57.2399 50.2117 58.2518 50.3605 59.1149 50.8069" stroke="#D5DAE8" stroke-miterlimit="10" stroke-linecap="round" stroke-linejoin="round"/>
<path opacity="0.6" d="M54.6856 49.3838C58.9755 49.3838 62.4532 48.845 62.4532 48.1802C62.4532 47.5155 58.9755 46.9766 54.6856 46.9766C50.3956 46.9766 46.918 47.5155 46.918 48.1802C46.918 48.845 50.3956 49.3838 54.6856 49.3838Z" fill="#1E1F28"/>
<g clip-path="url(#clip0_16_989)">
<path d="M54.355 18.254C48.3643 18.254 43.5081 23.1102 43.5081 29.1009C43.5081 34.7852 48.8041 41.2646 51.9953 44.6521C53.2741 46.0096 55.4364 46.0096 56.7153 44.6521C59.9059 41.2646 65.2019 34.7852 65.2019 29.1009C65.2019 23.1102 60.3457 18.254 54.355 18.254ZM54.355 32.8973C52.2583 32.8973 50.5586 31.1976 50.5586 29.1009C50.5586 27.0042 52.2583 25.3045 54.355 25.3045C56.4517 25.3045 58.1514 27.0042 58.1514 29.1009C58.1514 31.1976 56.4517 32.8973 54.355 32.8973Z" fill="#FD3C4F"/>
<path d="M54.355 18.254C48.3643 18.254 43.5081 23.1102 43.5081 29.1009C43.5081 34.7852 48.8041 41.2646 51.9953 44.6521C53.2741 46.0096 55.4364 46.0096 56.7153 44.6521C59.9059 41.2646 65.2019 34.7852 65.2019 29.1009C65.2019 23.1102 60.3457 18.254 54.355 18.254ZM54.355 32.8973C52.2583 32.8973 50.5586 31.1976 50.5586 29.1009C50.5586 27.0042 52.2583 25.3045 54.355 25.3045C56.4517 25.3045 58.1514 27.0042 58.1514 29.1009C58.1514 31.1976 56.4517 32.8973 54.355 32.8973Z" fill="#59A18B"/>
<path opacity="0.3" d="M54.355 49.71C60.046 49.71 64.6595 48.9815 64.6595 48.083C64.6595 47.1844 60.046 46.4559 54.355 46.4559C48.664 46.4559 44.0505 47.1844 44.0505 48.083C44.0505 48.9815 48.664 49.71 54.355 49.71Z" fill="black"/>
<path opacity="0.15" d="M65.2019 29.101C65.2019 28.1752 65.0733 27.2819 64.8553 26.424C63.5233 26.5959 62.4902 27.7223 62.4902 29.101C62.4902 32.5736 59.6656 37.5637 54.7412 42.793C53.9927 43.5875 53.824 44.7129 54.2059 45.6631C55.1154 45.7048 56.0384 45.3702 56.7147 44.6521C59.9059 41.2646 65.2019 34.7853 65.2019 29.101Z" fill="black"/>
<path d="M46.3603 25.7265C46.8002 24.6884 47.4363 23.7534 48.2216 22.9681C49.007 22.1828 49.9425 21.5461 50.98 21.1068" stroke="white" stroke-width="1.875" stroke-miterlimit="10" stroke-linecap="round" stroke-linejoin="round"/>
</g>
<path opacity="0.4" d="M85.8021 16.4949C87.531 16.4949 88.9324 15.0935 88.9324 13.3646C88.9324 11.6358 87.531 10.2344 85.8021 10.2344C84.0733 10.2344 82.6719 11.6358 82.6719 13.3646C82.6719 15.0935 84.0733 16.4949 85.8021 16.4949Z" fill="#81DCEA"/>
<path d="M90.3838 4.2755C91.5645 4.2755 92.5216 3.31839 92.5216 2.13775C92.5216 0.957102 91.5645 0 90.3838 0C89.2032 0 88.2461 0.957102 88.2461 2.13775C88.2461 3.31839 89.2032 4.2755 90.3838 4.2755Z" fill="#2A2E37"/>
<path d="M12.9659 16.4161C14.1465 16.4161 15.1036 15.459 15.1036 14.2784C15.1036 13.0977 14.1465 12.1406 12.9659 12.1406C11.7852 12.1406 10.8281 13.0977 10.8281 14.2784C10.8281 15.459 11.7852 16.4161 12.9659 16.4161Z" fill="#32394F"/>
<path opacity="0.4" d="M3.97011 62.6277C6.16273 62.6277 7.94021 60.8502 7.94021 58.6576C7.94021 56.465 6.16273 54.6875 3.97011 54.6875C1.77748 54.6875 0 56.465 0 58.6576C0 60.8502 1.77748 62.6277 3.97011 62.6277Z" fill="#81DCEA"/>
<defs>
<linearGradient id="paint0_linear_16_989" x1="29.6094" y1="28.7404" x2="28.8228" y2="29.5583" gradientUnits="userSpaceOnUse">
<stop stop-color="#B0BACC"/>
<stop offset="1" stop-color="#969EAE"/>
</linearGradient>
<linearGradient id="paint1_linear_16_989" x1="28.7602" y1="29.8417" x2="27.6518" y2="30.994" gradientUnits="userSpaceOnUse">
<stop stop-color="#B0BACC"/>
<stop offset="1" stop-color="#969EAE"/>
</linearGradient>
<linearGradient id="paint2_linear_16_989" x1="30.1254" y1="30.3386" x2="29.4103" y2="31.0821" gradientUnits="userSpaceOnUse">
<stop stop-color="#B0BACC"/>
<stop offset="1" stop-color="#969EAE"/>
</linearGradient>
<clipPath id="clip0_16_989">
<rect width="34.71" height="34.71" fill="white" transform="translate(37 15)"/>
</clipPath>
</defs>
</svg>
