<svg width="24" height="24" viewBox="0 0 24 24" fill="none" xmlns="http://www.w3.org/2000/svg">
<rect width="24" height="24" rx="4" fill="#59A18B"/>
<g clip-path="url(#clip0_16_977)">
<path d="M11.9997 18C11.9997 18 7.33301 14.1667 7.33301 10.6667C7.33301 10.0538 7.45371 9.447 7.68824 8.88081C7.92276 8.31462 8.2665 7.80018 8.69984 7.36683C9.13318 6.93349 9.64763 6.58975 10.2138 6.35523C10.78 6.12071 11.3868 6 11.9997 6C12.6125 6 13.2193 6.12071 13.7855 6.35523C14.3517 6.58975 14.8662 6.93349 15.2995 7.36683C15.7328 7.80018 16.0766 8.31462 16.3111 8.88081C16.5456 9.447 16.6663 10.0538 16.6663 10.6667C16.6663 14.1667 11.9997 18 11.9997 18Z" fill="#FAFBFC"/>
<path d="M12 12.6641C11.4696 12.6641 10.9609 12.4533 10.5858 12.0783C10.2107 11.7032 10 11.1945 10 10.6641C10 10.1336 10.2107 9.62492 10.5858 9.24985C10.9609 8.87478 11.4696 8.66406 12 8.66406C12.5304 8.66406 13.0391 8.87478 13.4142 9.24985C13.7893 9.62492 14 10.1336 14 10.6641C14 11.1945 13.7893 11.7032 13.4142 12.0783C13.0391 12.4533 12.5304 12.6641 12 12.6641Z" fill="#59A18B"/>
</g>
<defs>
<clipPath id="clip0_16_977">
<rect width="16" height="16" fill="white" transform="translate(4 4)"/>
</clipPath>
</defs>
</svg>
