<svg width="131" height="80" viewBox="0 0 131 80" fill="none" xmlns="http://www.w3.org/2000/svg">
<ellipse cx="65" cy="40" rx="40" ry="40" fill="#2A2E37"/>
<path d="M112.99 78.9952C114.87 78.9952 116.394 77.4712 116.394 75.5913C116.394 73.7115 114.87 72.1875 112.99 72.1875C111.11 72.1875 109.586 73.7115 109.586 75.5913C109.586 77.4712 111.11 78.9952 112.99 78.9952Z" fill="#EABA80" fill-opacity="0.4"/>
<path d="M128.516 69.3679C129.8 69.3679 130.841 68.3271 130.841 67.0433C130.841 65.7595 129.8 64.7188 128.516 64.7188C127.232 64.7188 126.191 65.7595 126.191 67.0433C126.191 68.3271 127.232 69.3679 128.516 69.3679Z" fill="#EABA80" fill-opacity="0.4"/>
<path d="M4.31706 12.7513C6.70131 12.7513 8.63412 10.8185 8.63412 8.43425C8.63412 6.05001 6.70131 4.11719 4.31706 4.11719C1.93281 4.11719 0 6.05001 0 8.43425C0 10.8185 1.93281 12.7513 4.31706 12.7513Z" fill="#EABA80" fill-opacity="0.1"/>
<path d="M55 56H38C36.343 56 35 54.657 35 53V32H55V56Z" fill="#FFD88D"/>
<path d="M75 25H55V56H75V25Z" fill="#EF8395"/>
<path d="M92 56H75V35H95V53C95 54.657 93.657 56 92 56Z" fill="#B5E4CA"/>
<path d="M55 33H35V31C35 29.343 36.343 28 38 28H52C53.657 28 55 29.343 55 31V33Z" fill="#FFD88D" fill-opacity="0.5"/>
<path d="M75 25H55V23C55 21.343 56.343 20 58 20H72C73.657 20 75 21.343 75 23V25Z" fill="#FD3C4F" fill-opacity="0.5"/>
<path d="M95 36H75V34C75 32.343 76.343 31 78 31H92C93.657 31 95 32.343 95 34V36Z" fill="#B5E4CA" fill-opacity="0.5"/>
<path d="M62.2259 39.981C61.4269 39.981 61.0259 39.593 61.0259 38.817C61.0259 38.054 61.4269 37.672 62.2259 37.672H64.0619V30.29L62.7349 31.09C62.3839 31.296 62.0689 31.351 61.7899 31.254C61.5119 31.157 61.2999 30.975 61.1539 30.708C61.0089 30.442 60.9659 30.154 61.0269 29.845C61.0879 29.536 61.2869 29.272 61.6279 29.054L64.1549 27.526C64.4089 27.369 64.6669 27.242 64.9269 27.144C65.1869 27.048 65.4439 27 65.6989 27C66.0629 27 66.3499 27.097 66.5629 27.291C66.7749 27.485 66.8809 27.77 66.8809 28.145V37.672H68.5349C69.3239 37.672 69.7169 38.054 69.7169 38.817C69.7169 39.593 69.3229 39.981 68.5349 39.981H62.2259Z" fill="#373A3D"/>
<path d="M41.578 47.941C41.119 47.941 40.788 47.836 40.584 47.625C40.38 47.414 40.277 47.104 40.277 46.694C40.277 46.429 40.343 46.182 40.476 45.953C40.608 45.724 40.789 45.489 41.019 45.248L44.417 41.669C44.923 41.127 45.288 40.645 45.51 40.223C45.734 39.802 45.845 39.379 45.845 38.958C45.845 37.873 45.176 37.331 43.839 37.331C43.489 37.331 43.13 37.38 42.764 37.475C42.396 37.572 42.014 37.741 41.615 37.982C41.29 38.175 40.991 38.217 40.721 38.109C40.45 38 40.252 37.813 40.125 37.549C39.998 37.284 39.968 37.004 40.034 36.708C40.1 36.413 40.296 36.169 40.621 35.976C41.152 35.65 41.73 35.407 42.357 35.243C42.984 35.08 43.604 35 44.219 35C45.64 35 46.728 35.316 47.482 35.949C48.235 36.582 48.612 37.482 48.612 38.651C48.612 39.423 48.434 40.16 48.078 40.865C47.724 41.57 47.141 42.332 46.333 43.152L43.875 45.647H48.069C48.853 45.647 49.244 46.027 49.244 46.786C49.244 47.558 48.853 47.943 48.069 47.943H41.578V47.941Z" fill="#373A3D"/>
<path d="M84.616 51.1721C83.976 51.1721 83.329 51.1001 82.673 50.9551C82.016 50.8111 81.446 50.5941 80.964 50.3051C80.579 50.1001 80.337 49.8441 80.242 49.5371C80.145 49.2301 80.161 48.9441 80.288 48.6791C80.414 48.4141 80.622 48.2251 80.91 48.1101C81.2 47.9951 81.531 48.0281 81.904 48.2091C82.375 48.4381 82.82 48.6001 83.242 48.6971C83.663 48.7941 84.085 48.8421 84.507 48.8421C85.976 48.8421 86.712 48.2941 86.712 47.1981C86.712 46.1851 86.025 45.6791 84.651 45.6791H83.585C83.188 45.6791 82.883 45.5801 82.673 45.3811C82.461 45.1821 82.357 44.9081 82.357 44.5591C82.357 44.1971 82.461 43.9171 82.673 43.7181C82.883 43.5191 83.188 43.4191 83.585 43.4191H84.381C84.983 43.4191 85.459 43.2811 85.809 43.0041C86.158 42.7271 86.333 42.3411 86.333 41.8471C86.333 40.8591 85.689 40.3651 84.399 40.3651C84.002 40.3651 83.62 40.4101 83.252 40.5001C82.884 40.5901 82.484 40.7501 82.05 40.9791C81.712 41.1481 81.41 41.1781 81.145 41.0691C80.88 40.9611 80.685 40.7741 80.558 40.5091C80.432 40.2441 80.404 39.9671 80.477 39.6781C80.549 39.3891 80.759 39.1481 81.109 38.9551C82.156 38.3401 83.337 38.0341 84.651 38.0341C86.025 38.0341 87.097 38.3411 87.867 38.9551C88.639 39.5701 89.024 40.4131 89.024 41.4851C89.024 42.1481 88.855 42.7311 88.518 43.2371C88.18 43.7441 87.711 44.1111 87.108 44.3401C87.832 44.5441 88.395 44.9211 88.798 45.4701C89.202 46.0181 89.404 46.6771 89.404 47.4491C89.404 48.6061 88.976 49.5151 88.12 50.1781C87.266 50.8411 86.097 51.1721 84.616 51.1721Z" fill="#373A3D"/>
</svg>
