<svg width="131" height="80" viewBox="0 0 131 80" fill="none" xmlns="http://www.w3.org/2000/svg">
<ellipse cx="65" cy="40" rx="40" ry="40" fill="#2A2E37"/>
<path d="M112.99 78.9952C114.87 78.9952 116.394 77.4712 116.394 75.5913C116.394 73.7115 114.87 72.1875 112.99 72.1875C111.11 72.1875 109.586 73.7115 109.586 75.5913C109.586 77.4712 111.11 78.9952 112.99 78.9952Z" fill="#EABA80" fill-opacity="0.4"/>
<path d="M128.516 69.3679C129.8 69.3679 130.841 68.3271 130.841 67.0433C130.841 65.7595 129.8 64.7188 128.516 64.7188C127.232 64.7188 126.191 65.7595 126.191 67.0433C126.191 68.3271 127.232 69.3679 128.516 69.3679Z" fill="#EABA80" fill-opacity="0.4"/>
<path d="M4.31706 12.7513C6.70131 12.7513 8.63412 10.8185 8.63412 8.43425C8.63412 6.05001 6.70131 4.11719 4.31706 4.11719C1.93281 4.11719 0 6.05001 0 8.43425C0 10.8185 1.93281 12.7513 4.31706 12.7513Z" fill="#EABA80" fill-opacity="0.1"/>
<path d="M84 62H78C76.343 62 75 60.657 75 59V27C75 25.343 76.343 24 78 24H84C85.657 24 87 25.343 87 27V59C87 60.657 85.657 62 84 62Z" fill="#EABA80"/>
<path opacity="0.15" d="M78 50L82 56.091C82 56.578 81.647 56.988 81.166 57.069C78.863 57.457 77.104 59.426 77.018 61.821C77.327 61.93 77.654 62 78 62H84C85.657 62 87 60.657 87 59V43C84.239 43 78 47.239 78 50Z" fill="black"/>
<path d="M52 62H46C44.343 62 43 60.657 43 59V47C43 45.343 44.343 44 46 44H52C53.657 44 55 45.343 55 47V59C55 60.657 53.657 62 52 62Z" fill="#EABA80"/>
<path d="M68 62H62C60.343 62 59 60.657 59 59V35C59 33.343 60.343 32 62 32H68C69.657 32 71 33.343 71 35V59C71 60.657 69.657 62 68 62Z" fill="#EABA80"/>
<path opacity="0.1" d="M68 32H62C60.343 32 59 33.343 59 35V56C61.761 56 64 53.761 64 51V37.909C64 37.422 64.353 37.012 64.834 36.931C67.137 36.543 68.896 34.574 68.982 32.179C68.673 32.071 68.346 32 68 32Z" fill="white"/>
<path d="M62.5 41.5L65.5 46.5V35.5" stroke="white" stroke-width="1.875" stroke-miterlimit="10" stroke-linecap="round" stroke-linejoin="round"/>
<path d="M47 36.9999L65.213 20.3929" stroke="#B26E1D" stroke-width="3.125" stroke-miterlimit="10" stroke-linecap="round" stroke-linejoin="round"/>
<path d="M67.182 26.4409L59.167 18.4349C57.97 17.2389 58.63 15.2309 60.281 15.0489L69.279 14.0559C70.572 13.9129 71.692 15.0309 71.55 16.3249L70.566 25.3239C70.387 26.9749 68.379 27.6379 67.182 26.4409Z" fill="#B26E1D"/>
</svg>
