<svg width="24" height="24" viewBox="0 0 24 24" fill="none" xmlns="http://www.w3.org/2000/svg">
<rect width="24" height="24" rx="4" fill="#EABA80"/>
<g clip-path="url(#clip0_16_1024)">
<path d="M8 16.6693H6.66667C6.48986 16.6693 6.32029 16.599 6.19526 16.474C6.07024 16.349 6 16.1794 6 16.0026V14.0026C6 13.8258 6.07024 13.6562 6.19526 13.5312C6.32029 13.4062 6.48986 13.3359 6.66667 13.3359H8C8.17681 13.3359 8.34638 13.4062 8.4714 13.5312C8.59643 13.6562 8.66667 13.8258 8.66667 14.0026V16.0026C8.66667 16.1794 8.59643 16.349 8.4714 16.474C8.34638 16.599 8.17681 16.6693 8 16.6693Z" fill="#2B2E30"/>
<path d="M12.667 16.6719H11.3337C11.1568 16.6719 10.9873 16.6016 10.8623 16.4766C10.7372 16.3516 10.667 16.182 10.667 16.0052V11.3385C10.667 11.1617 10.7372 10.9922 10.8623 10.8671C10.9873 10.7421 11.1568 10.6719 11.3337 10.6719H12.667C12.8438 10.6719 13.0134 10.7421 13.1384 10.8671C13.2634 10.9922 13.3337 11.1617 13.3337 11.3385V16.0052C13.3337 16.182 13.2634 16.3516 13.1384 16.4766C13.0134 16.6016 12.8438 16.6719 12.667 16.6719Z" fill="#2B2E30"/>
<path d="M17.333 16.6693H15.9997C15.8229 16.6693 15.6533 16.599 15.5283 16.474C15.4032 16.349 15.333 16.1794 15.333 16.0026V8.0026C15.333 7.82579 15.4032 7.65622 15.5283 7.5312C15.6533 7.40618 15.8229 7.33594 15.9997 7.33594H17.333C17.5098 7.33594 17.6794 7.40618 17.8044 7.5312C17.9294 7.65622 17.9997 7.82579 17.9997 8.0026V16.0026C17.9997 16.1794 17.9294 16.349 17.8044 16.474C17.6794 16.599 17.5098 16.6693 17.333 16.6693Z" fill="#2B2E30"/>
</g>
<defs>
<clipPath id="clip0_16_1024">
<rect width="16" height="16" fill="white" transform="translate(4 4)"/>
</clipPath>
</defs>
</svg>
