<svg width="131" height="80" viewBox="0 0 131 80" fill="none" xmlns="http://www.w3.org/2000/svg">
<ellipse cx="75" cy="40" rx="40" ry="40" fill="#2A2E37"/>
<path d="M112.99 78.9952C114.87 78.9952 116.394 77.4712 116.394 75.5913C116.394 73.7115 114.87 72.1875 112.99 72.1875C111.11 72.1875 109.586 73.7115 109.586 75.5913C109.586 77.4712 111.11 78.9952 112.99 78.9952Z" fill="#EABA80" fill-opacity="0.4"/>
<path d="M128.516 69.3679C129.8 69.3679 130.841 68.3271 130.841 67.0433C130.841 65.7595 129.8 64.7188 128.516 64.7188C127.232 64.7188 126.191 65.7595 126.191 67.0433C126.191 68.3271 127.232 69.3679 128.516 69.3679Z" fill="#EABA80" fill-opacity="0.4"/>
<path d="M4.31706 12.7513C6.70131 12.7513 8.63412 10.8185 8.63412 8.43425C8.63412 6.05001 6.70131 4.11719 4.31706 4.11719C1.93281 4.11719 0 6.05001 0 8.43425C0 10.8185 1.93281 12.7513 4.31706 12.7513Z" fill="#EABA80" fill-opacity="0.1"/>
<path d="M65.8894 43.0325L52.49 56.4324L57.5614 61.5037L70.9609 48.1037L65.8894 43.0325Z" fill="#ACDCE7"/>
<path d="M62 41.0001L66.915 34.8561C71.597 29.0041 77.334 24.0801 83.829 20.3401L95.227 13.7781C98.684 11.7871 102.606 15.5301 100.779 19.0761L96.243 27.8821C92.134 35.8591 86.288 42.8121 79.136 48.2301L73.5 52.5001L62 41.0001Z" fill="#68AEBE"/>
<path opacity="0.2" d="M73.491 52.509L79.145 48.217C86.276 42.804 92.105 35.863 96.205 27.905L100.756 19.071C101.714 17.212 101.085 15.307 99.778 14.194L67.478 46.494L73.491 52.509Z" fill="black"/>
<path d="M95.164 29.839C92.95 28.581 90.11 29.165 88.614 31.291C85.41 35.854 81.542 39.891 77.118 43.29C74.929 44.973 74.517 48.111 76.2 50.302C76.225 50.335 76.254 50.362 76.28 50.394L79.135 48.231C85.693 43.263 91.134 36.994 95.164 29.839Z" fill="#B19D9D"/>
<path d="M56.5 63C59.5376 63 62 60.5376 62 57.5C62 54.4624 59.5376 52 56.5 52C53.4624 52 51 54.4624 51 57.5C51 60.5376 53.4624 63 56.5 63Z" fill="#68AEBE"/>
<path d="M57.405 43.1C60.337 41.572 64.038 42.038 66.5 44.5L70 48C72.152 50.152 72.779 53.25 71.883 55.954" stroke="#68AEBE" stroke-width="3.125" stroke-miterlimit="10" stroke-linecap="round" stroke-linejoin="round"/>
</svg>
