<svg width="24" height="24" viewBox="0 0 24 24" fill="none" xmlns="http://www.w3.org/2000/svg">
<rect width="24" height="24" rx="4" fill="#69AEBE"/>
<path d="M7.93172 6.375L6.99378 9.1875H7.88091L8.81819 6.375H7.93172ZM19.5312 6.375H19.0625V5.90625C19.0625 5.64716 18.8528 5.4375 18.5938 5.4375C18.3347 5.4375 18.125 5.64716 18.125 5.90625V6.375H9.80672L8.86934 9.1875H20V6.84375C20 6.58466 19.7903 6.375 19.5312 6.375ZM5.40625 6.375C5.14716 6.375 4.9375 6.58466 4.9375 6.84375C4.9375 7.10238 4.72694 7.3125 4.46875 7.3125C4.20966 7.3125 4 7.52216 4 7.78125V9.1875H6.00569L6.94319 6.375H5.40625ZM4 10.125V10.5938C4 10.8528 4.20966 11.0625 4.46875 11.0625C4.72694 11.0625 4.9375 11.2726 4.94206 11.4649L4.16372 16.9571C4.04309 17.8025 4.696 18.5625 5.55 18.5625H7.39387C8.09884 18.5625 8.6985 18.0347 8.78912 17.3348L9.11231 14.8125H11.0312C11.8067 14.8125 12.4375 14.1817 12.4375 13.4062V12H17.6562C17.7433 12 17.8286 11.9757 17.9027 11.93C17.9767 11.8842 18.0366 11.8188 18.0756 11.7409L18.8835 10.125H4ZM9.625 13.875C9.10772 13.875 8.6875 13.4543 8.6875 12.9375C8.6875 12.4207 9.10772 12 9.625 12H9.65613C9.52703 12.4137 9.50391 12.8569 9.61769 13.2836C9.67388 13.4958 9.76875 13.6903 9.87953 13.875H9.625ZM11.5 13.4062C11.5 13.6291 11.3405 13.8072 11.1321 13.8546C10.8358 13.6696 10.6144 13.3838 10.5231 13.0433C10.4291 12.6889 10.486 12.3152 10.668 12H11.5V13.4062Z" fill="#FAFBFC"/>
</svg>
