<svg width="16" height="16" viewBox="0 0 16 16" fill="none" xmlns="http://www.w3.org/2000/svg">
<g clip-path="url(#clip0_16_1117)">
<path d="M5.00049 12.9138C5.0018 13.6659 5.27401 14.3914 5.76537 14.9522C6.25673 15.513 6.93299 15.8702 7.6656 15.9557V9.875C6.93325 9.95983 6.25703 10.3163 5.76562 10.8766C5.2742 11.437 5.00189 12.162 5.00049 12.9138Z" fill="#7D8185"/>
<path d="M14.3333 10.1917C14.3318 11.17 14.1124 12.1352 13.6916 13.0144C13.2709 13.8936 12.6598 14.6638 11.9045 15.2669C13.4222 14.3988 14.621 13.0496 15.319 11.4238C16.0171 9.79808 16.1763 7.98449 15.7726 6.2581C15.3689 4.5317 14.4243 2.98668 13.082 1.85733C11.7397 0.727973 10.0729 0.0759026 8.33447 0V3.7398C9.95352 3.82902 11.4775 4.54747 12.5933 5.74747C13.709 6.94747 14.3317 8.53784 14.3333 10.1917Z" fill="#7D8185"/>
<path d="M1.66687 10.1917C1.66849 8.53784 2.29116 6.94747 3.4069 5.74747C4.52264 4.54747 6.04666 3.82902 7.66571 3.7398V0C5.92503 0.0730564 4.25534 0.723805 2.91042 1.85333C1.5655 2.98286 0.618918 4.52939 0.214544 6.25785C-0.18983 7.98631 -0.0298773 9.80218 0.670089 11.4294C1.37006 13.0567 2.57176 14.4063 4.09253 15.2732C3.33734 14.6689 2.72661 13.8975 2.30641 13.0172C1.88621 12.1369 1.66753 11.1708 1.66687 10.1917Z" fill="#7D8185"/>
<path d="M8.33447 9.875V15.9557C9.06521 15.8688 9.73918 15.5111 10.2283 14.9506C10.7175 14.39 10.9877 13.6658 10.9877 12.9154C10.9877 12.165 10.7175 11.4407 10.2283 10.8802C9.73918 10.3197 9.06521 9.96195 8.33447 9.875Z" fill="#7D8185"/>
<path d="M2.33252 10.1884C2.33321 11.178 2.5829 12.1509 3.0577 13.014C3.53249 13.8771 4.21651 14.6014 5.04428 15.1177C4.66287 14.5841 4.42688 13.957 4.36035 13.3002C4.29382 12.6434 4.39912 11.9803 4.66553 11.3785C4.93194 10.7766 5.34994 10.2576 5.87697 9.87413C6.40401 9.49068 7.02125 9.25653 7.66585 9.19552V4.4375C6.22713 4.5261 4.87535 5.16972 3.88486 6.23775C2.89437 7.30579 2.33938 8.7182 2.33252 10.1884Z" fill="#7D8185"/>
<path d="M11.6651 12.9101C11.6691 13.7087 11.4205 14.4874 10.956 15.1305C11.989 14.49 12.7941 13.5294 13.2537 12.3889C13.7132 11.2485 13.8031 9.98799 13.5103 8.7917C13.2174 7.59541 12.5571 6.52601 11.6259 5.73978C10.6947 4.95356 9.54137 4.49171 8.33447 4.42175V9.1988C9.24247 9.28471 10.0866 9.71239 10.7023 10.3985C11.318 11.0846 11.6613 11.9799 11.6651 12.9101Z" fill="#7D8185"/>
</g>
<defs>
<clipPath id="clip0_16_1117">
<rect width="16" height="16" fill="white"/>
</clipPath>
</defs>
</svg>
