<svg width="32" height="32" viewBox="0 0 32 32" fill="none" xmlns="http://www.w3.org/2000/svg">
<path opacity="0.5" d="M8.64599 17.1743L8.62066 17.363C8.45599 18.5843 8.22266 20.323 8.22266 21.5517C8.22266 23.4463 9.75132 28.2183 15.0207 28.2183C20.29 28.2183 22.0873 24.4563 22.1113 20.441C22.1167 19.4637 22.178 18.3377 22.2573 17.1803L15.444 14.375L8.64599 17.1743Z" fill="#FAFBFC"/>
<path d="M14.8888 6.55729L13.7782 5.44662V4.89062C12.1655 5.19596 10.4762 5.93396 9.87816 6.23929C9.2795 6.54396 8.17283 7.19063 8.22283 8.77929C8.24683 9.56063 8.3815 11.05 8.51216 12.4946C8.6415 13.9253 8.76683 15.3126 8.7775 15.9246L14.8888 13.408V6.55729Z" fill="#FAFBFC"/>
<path opacity="0.5" d="M17.1113 5.44662V4.89062C17.8533 5.13729 19.412 5.88596 20.4893 6.52796C21.836 7.33062 22.6667 8.21396 22.6667 10.622C22.6667 11.7833 22.5413 13.4113 22.41 15.122L22.3413 16.0193L16 13.4086V6.55729L17.1113 5.44662Z" fill="#FAFBFC"/>
</svg>
