<svg width="24" height="24" viewBox="0 0 24 24" fill="none" xmlns="http://www.w3.org/2000/svg">
<g clip-path="url(#clip0_16_1742)">
<path opacity="0.15" d="M10.9755 2.13452H13.0252C14.0311 2.13452 16.2666 2.14555 18.4912 5.84701C19.2891 7.1746 22.1922 11.9975 22.1922 11.9975C22.1922 11.9975 19.2891 16.8205 18.4912 18.1481C16.2666 21.8495 14.0311 21.8605 13.0252 21.8605H10.9755C9.96961 21.8605 7.73419 21.8495 5.50953 18.1481C4.71167 16.8206 1.80859 11.9975 1.80859 11.9975C1.80859 11.9975 4.71159 7.1746 5.50953 5.84701C7.73419 2.14555 9.96961 2.13452 10.9755 2.13452Z" fill="#4CACB9"/>
<path opacity="0.3" fill-rule="evenodd" clip-rule="evenodd" d="M9.23229 4.1817C10.0533 3.78477 10.7463 3.78296 11.1626 3.78296H12.8365C13.2528 3.78296 13.9457 3.78477 14.7667 4.1817C15.5875 4.57854 16.5201 5.36183 17.4413 6.89453C17.7671 7.43658 18.5226 8.69226 19.1967 9.81248C19.5339 10.3726 19.8506 10.8988 20.0831 11.285L20.4635 11.9172L20.5148 12.0021L20.4636 12.087L20.0831 12.7193C19.8506 13.1055 19.5339 13.6317 19.1967 14.1918C18.5226 15.312 17.7671 16.5677 17.4413 17.1097C16.5201 18.6424 15.5875 19.4257 14.7667 19.8225C13.9457 20.2195 13.2528 20.2213 12.8365 20.2213H11.1626C10.7463 20.2213 10.0533 20.2195 9.23229 19.8225C8.41151 19.4257 7.47896 18.6424 6.55776 17.1097C6.23201 16.5678 5.47642 15.3121 4.80225 14.1918C4.46519 13.6317 4.14847 13.1055 3.91601 12.7193L3.5355 12.0871L3.48438 12.0021L3.53542 11.9173L3.91601 11.285C4.14845 10.8988 4.46517 10.3726 4.80224 9.81248C5.47639 8.69226 6.23198 7.43658 6.55776 6.89453C7.47896 5.36183 8.41151 4.57854 9.23229 4.1817ZM3.8681 12.0021L4.1977 12.5497C4.43016 12.936 4.74687 13.4622 5.08394 14.0223C5.7581 15.1425 6.51373 16.3983 6.83956 16.9404C7.73517 18.4305 8.62383 19.1632 9.3754 19.5266C10.1268 19.8899 10.7573 19.8925 11.1626 19.8925H12.8365C13.2417 19.8925 13.8723 19.8899 14.6236 19.5266C15.3752 19.1632 16.2639 18.4305 17.1595 16.9404C17.4853 16.3982 18.241 15.1425 18.9151 14.0223C19.2521 13.4622 19.5689 12.9359 19.8013 12.5497L20.1309 12.0021L19.8013 11.4545C19.5689 11.0683 19.2521 10.5421 18.9151 9.98201C18.241 8.86182 17.4853 7.60604 17.1595 7.06389C16.2639 5.57374 15.3752 4.84108 14.6236 4.47769C13.8723 4.11442 13.2417 4.11173 12.8365 4.11173H11.1626C10.7573 4.11173 10.1268 4.11442 9.3754 4.47769C8.62383 4.84108 7.73517 5.57374 6.83956 7.06389C6.5137 7.60604 5.75806 8.86182 5.08393 9.98201C4.74686 10.5421 4.43014 11.0683 4.19768 11.4545L3.8681 12.0021Z" fill="#4CACB9"/>
<path fill-rule="evenodd" clip-rule="evenodd" d="M7.96777 4.85501C9.31817 3.62809 10.537 3.6189 11.1635 3.6189H12.8375C13.464 3.6189 14.6828 3.62809 16.0332 4.85501L15.591 5.34169C14.4188 4.27666 13.3991 4.27643 12.8375 4.27643H11.1635C10.6019 4.27643 9.58213 4.27666 8.40993 5.34169L7.96777 4.85501ZM11.1635 20.386C10.537 20.386 9.31817 20.3768 7.96777 19.1499L8.40993 18.6633C9.58213 19.7283 10.6019 19.7285 11.1635 19.7285H12.8375C13.3991 19.7285 14.4188 19.7283 15.591 18.6633L16.0332 19.1499C14.6828 20.3768 13.464 20.386 12.8375 20.386H11.1635Z" fill="#F0F0F0"/>
<path d="M11.3849 6.07983H12.6148C13.2183 6.07983 14.5596 6.08646 15.8944 8.30733C16.3731 9.10388 18.1149 11.9976 18.1149 11.9976C18.1149 11.9976 16.3731 14.8914 15.8944 15.688C14.5596 17.9089 13.2183 17.9155 12.6148 17.9155H11.3849C10.7814 17.9155 9.44014 17.9089 8.10532 15.688C7.62662 14.8915 5.88477 11.9976 5.88477 11.9976C5.88477 11.9976 7.62657 9.10388 8.10532 8.30733C9.44014 6.08646 10.7814 6.07983 11.3849 6.07983Z" fill="#4CACB9"/>
<g style="mix-blend-mode:multiply" opacity="0.25">
<path d="M11.3849 17.9155C10.7814 17.9155 9.44014 17.9089 8.10532 15.688C7.62662 14.8915 5.88477 11.9976 5.88477 11.9976C5.88477 11.9976 7.62657 9.10388 8.10532 8.30733C9.44014 6.08646 10.7814 6.07983 11.3849 6.07983H11.9999V17.9155H11.3849Z" fill="#4CACB9"/>
</g>
<g style="mix-blend-mode:multiply" opacity="0.5">
<path d="M11.641 8.54858H12.3585C12.7105 8.54858 13.4929 8.55245 14.2716 9.84795C14.5508 10.3126 15.5669 12.0006 15.5669 12.0006C15.5669 12.0006 14.5508 13.6887 14.2716 14.1533C13.4929 15.4488 12.7105 15.4527 12.3585 15.4527H11.641C11.289 15.4527 10.5066 15.4488 9.72794 14.1533C9.44871 13.6887 8.43262 12.0006 8.43262 12.0006C8.43262 12.0006 9.44867 10.3126 9.72794 9.84795C10.5066 8.55245 11.289 8.54858 11.641 8.54858Z" fill="#4CACB9"/>
</g>
<path opacity="0.15" d="M18.4908 5.84701C16.2662 2.14555 14.0308 2.13452 13.0249 2.13452H12V21.8605H13.0249C14.0308 21.8605 16.2662 21.8495 18.4908 18.1481C19.2888 16.8205 22.1918 11.9975 22.1918 11.9975C22.1918 11.9975 19.2888 7.1746 18.4908 5.84701Z" fill="#4CACB9"/>
<g filter="url(#filter0_dd_16_1742)">
<path d="M9.37012 12.0017H12.0003V14.9606C12.0003 14.9606 11.5286 13.7724 10.9952 13.1774C10.4721 12.594 9.37012 12.0017 9.37012 12.0017Z" fill="#9DA5AA"/>
<path d="M9.37012 11.9997H12.0003V9.04077C12.0003 9.04077 11.5286 10.229 10.9952 10.824C10.4721 11.4074 9.37012 11.9997 9.37012 11.9997Z" fill="#C0C5C9"/>
<path d="M14.6302 12.0017H12V14.9606C12 14.9606 12.4716 13.7724 13.0051 13.1774C13.5282 12.594 14.6302 12.0017 14.6302 12.0017Z" fill="#C0C5C9"/>
<path d="M14.6302 11.9997H12V9.04077C12 9.04077 12.4716 10.229 13.0051 10.824C13.5282 11.4074 14.6302 11.9997 14.6302 11.9997Z" fill="#F0F0F0"/>
</g>
<g filter="url(#filter1_dd_16_1742)">
<path d="M19.0684 12.0017H20.219V13.1524C20.219 13.1524 20.0127 12.6903 19.7793 12.4589C19.5505 12.232 19.0684 12.0017 19.0684 12.0017Z" fill="#9DA5AA"/>
<path d="M19.0684 12.004H20.219V10.8533C20.219 10.8533 20.0127 11.3154 19.7793 11.5467C19.5505 11.7736 19.0684 12.004 19.0684 12.004Z" fill="#C0C5C9"/>
<path d="M21.3694 12.0017H20.2188V13.1524C20.2188 13.1524 20.4251 12.6903 20.6585 12.4589C20.8873 12.232 21.3694 12.0017 21.3694 12.0017Z" fill="#C0C5C9"/>
<path d="M21.3694 12.004H20.2188V10.8533C20.2188 10.8533 20.4251 11.3154 20.6585 11.5467C20.8873 11.7736 21.3694 12.004 21.3694 12.004Z" fill="#F0F0F0"/>
</g>
<g filter="url(#filter2_dd_16_1742)">
<path d="M2.62988 12.0017H3.78057V13.1524C3.78057 13.1524 3.57422 12.6903 3.34084 12.4589C3.11199 12.232 2.62988 12.0017 2.62988 12.0017Z" fill="#9DA5AA"/>
<path d="M2.62988 12.004H3.78057V10.8533C3.78057 10.8533 3.57422 11.3154 3.34084 11.5467C3.11199 11.7736 2.62988 12.004 2.62988 12.004Z" fill="#C0C5C9"/>
<path d="M4.93096 12.0017H3.78027V13.1524C3.78027 13.1524 3.98662 12.6903 4.22 12.4589C4.44885 12.232 4.93096 12.0017 4.93096 12.0017Z" fill="#C0C5C9"/>
<path d="M4.93096 12.004H3.78027V10.8533C3.78027 10.8533 3.98662 11.3154 4.22 11.5467C4.44885 11.7736 4.93096 12.004 4.93096 12.004Z" fill="#F0F0F0"/>
</g>
<g style="mix-blend-mode:overlay" opacity="0.5">
<path d="M11.3849 6.07983H12.6148C13.2183 6.07983 14.5596 6.08646 15.8944 8.30733C16.3731 9.10388 18.1149 11.9976 18.1149 11.9976C18.1149 11.9976 16.3731 14.8914 15.8944 15.688C14.5596 17.9089 13.2183 17.9155 12.6148 17.9155H11.3849C10.7814 17.9155 9.44014 17.9089 8.10532 15.688C7.62662 14.8915 5.88477 11.9976 5.88477 11.9976C5.88477 11.9976 7.62657 9.10388 8.10532 8.30733C9.44014 6.08646 10.7814 6.07983 11.3849 6.07983Z" fill="url(#paint0_linear_16_1742)"/>
</g>
</g>
<defs>
<filter id="filter0_dd_16_1742" x="-6.62988" y="-6.95923" width="37.26" height="37.9199" filterUnits="userSpaceOnUse" color-interpolation-filters="sRGB">
<feFlood flood-opacity="0" result="BackgroundImageFix"/>
<feColorMatrix in="SourceAlpha" type="matrix" values="0 0 0 0 0 0 0 0 0 0 0 0 0 0 0 0 0 0 127 0" result="hardAlpha"/>
<feOffset/>
<feGaussianBlur stdDeviation="4"/>
<feColorMatrix type="matrix" values="0 0 0 0 0.027451 0 0 0 0 0.054902 0 0 0 0 0.113725 0 0 0 0.2 0"/>
<feBlend mode="soft-light" in2="BackgroundImageFix" result="effect1_dropShadow_16_1742"/>
<feColorMatrix in="SourceAlpha" type="matrix" values="0 0 0 0 0 0 0 0 0 0 0 0 0 0 0 0 0 0 127 0" result="hardAlpha"/>
<feOffset/>
<feGaussianBlur stdDeviation="8"/>
<feColorMatrix type="matrix" values="0 0 0 0 0.027451 0 0 0 0 0.054902 0 0 0 0 0.113725 0 0 0 0.2 0"/>
<feBlend mode="soft-light" in2="effect1_dropShadow_16_1742" result="effect2_dropShadow_16_1742"/>
<feBlend mode="normal" in="SourceGraphic" in2="effect2_dropShadow_16_1742" result="shape"/>
</filter>
<filter id="filter1_dd_16_1742" x="3.06836" y="-5.14673" width="34.301" height="34.2991" filterUnits="userSpaceOnUse" color-interpolation-filters="sRGB">
<feFlood flood-opacity="0" result="BackgroundImageFix"/>
<feColorMatrix in="SourceAlpha" type="matrix" values="0 0 0 0 0 0 0 0 0 0 0 0 0 0 0 0 0 0 127 0" result="hardAlpha"/>
<feOffset/>
<feGaussianBlur stdDeviation="4"/>
<feColorMatrix type="matrix" values="0 0 0 0 0.027451 0 0 0 0 0.054902 0 0 0 0 0.113725 0 0 0 0.2 0"/>
<feBlend mode="soft-light" in2="BackgroundImageFix" result="effect1_dropShadow_16_1742"/>
<feColorMatrix in="SourceAlpha" type="matrix" values="0 0 0 0 0 0 0 0 0 0 0 0 0 0 0 0 0 0 127 0" result="hardAlpha"/>
<feOffset/>
<feGaussianBlur stdDeviation="8"/>
<feColorMatrix type="matrix" values="0 0 0 0 0.027451 0 0 0 0 0.054902 0 0 0 0 0.113725 0 0 0 0.2 0"/>
<feBlend mode="soft-light" in2="effect1_dropShadow_16_1742" result="effect2_dropShadow_16_1742"/>
<feBlend mode="normal" in="SourceGraphic" in2="effect2_dropShadow_16_1742" result="shape"/>
</filter>
<filter id="filter2_dd_16_1742" x="-13.3701" y="-5.14673" width="34.301" height="34.2991" filterUnits="userSpaceOnUse" color-interpolation-filters="sRGB">
<feFlood flood-opacity="0" result="BackgroundImageFix"/>
<feColorMatrix in="SourceAlpha" type="matrix" values="0 0 0 0 0 0 0 0 0 0 0 0 0 0 0 0 0 0 127 0" result="hardAlpha"/>
<feOffset/>
<feGaussianBlur stdDeviation="4"/>
<feColorMatrix type="matrix" values="0 0 0 0 0.027451 0 0 0 0 0.054902 0 0 0 0 0.113725 0 0 0 0.2 0"/>
<feBlend mode="soft-light" in2="BackgroundImageFix" result="effect1_dropShadow_16_1742"/>
<feColorMatrix in="SourceAlpha" type="matrix" values="0 0 0 0 0 0 0 0 0 0 0 0 0 0 0 0 0 0 127 0" result="hardAlpha"/>
<feOffset/>
<feGaussianBlur stdDeviation="8"/>
<feColorMatrix type="matrix" values="0 0 0 0 0.027451 0 0 0 0 0.054902 0 0 0 0 0.113725 0 0 0 0.2 0"/>
<feBlend mode="soft-light" in2="effect1_dropShadow_16_1742" result="effect2_dropShadow_16_1742"/>
<feBlend mode="normal" in="SourceGraphic" in2="effect2_dropShadow_16_1742" result="shape"/>
</filter>
<linearGradient id="paint0_linear_16_1742" x1="18.082" y1="6.07983" x2="3.98474" y2="14.7854" gradientUnits="userSpaceOnUse">
<stop stop-color="white"/>
<stop offset="1"/>
</linearGradient>
<clipPath id="clip0_16_1742">
<rect width="24" height="22.3562" fill="white" transform="translate(0 0.822021)"/>
</clipPath>
</defs>
</svg>
