<svg width="123" height="34" viewBox="0 0 123 34" fill="none" xmlns="http://www.w3.org/2000/svg">
<path d="M19.2188 8.74609V14.3477H18.7852C18.2617 12.8164 17.4766 11.6523 16.4297 10.8555C15.3828 10.0586 14.2383 9.66016 12.9961 9.66016C11.8086 9.66016 10.8203 9.99609 10.0312 10.668C9.24219 11.332 8.68359 12.2617 8.35547 13.457C8.02734 14.6523 7.86328 15.8789 7.86328 17.1367C7.86328 18.6602 8.04297 19.9961 8.40234 21.1445C8.76172 22.293 9.33984 23.1367 10.1367 23.6758C10.9414 24.2148 11.8945 24.4844 12.9961 24.4844C13.3789 24.4844 13.7695 24.4453 14.168 24.3672C14.5742 24.2812 14.9883 24.1602 15.4102 24.0039V20.6992C15.4102 20.0742 15.3672 19.6719 15.2812 19.4922C15.1953 19.3047 15.0156 19.1367 14.7422 18.9883C14.4766 18.8398 14.1523 18.7656 13.7695 18.7656H13.3594V18.332H21.082V18.7656C20.4961 18.8047 20.0859 18.8867 19.8516 19.0117C19.625 19.1289 19.4492 19.3281 19.3242 19.6094C19.2539 19.7578 19.2188 20.1211 19.2188 20.6992V24.0039C18.2031 24.457 17.1445 24.7969 16.043 25.0234C14.9492 25.2578 13.8125 25.375 12.6328 25.375C11.125 25.375 9.87109 25.1719 8.87109 24.7656C7.87891 24.3516 7 23.8125 6.23438 23.1484C5.47656 22.4766 4.88281 21.7227 4.45312 20.8867C3.90625 19.8086 3.63281 18.6016 3.63281 17.2656C3.63281 14.875 4.47266 12.8555 6.15234 11.207C7.83203 9.55859 9.94531 8.73438 12.4922 8.73438C13.2812 8.73438 13.9922 8.79688 14.625 8.92188C14.9688 8.98438 15.5234 9.16406 16.2891 9.46094C17.0625 9.75 17.5195 9.89453 17.6602 9.89453C17.8789 9.89453 18.082 9.81641 18.2695 9.66016C18.457 9.49609 18.6289 9.19141 18.7852 8.74609H19.2188Z" fill="#FAFBFC"/>
<path d="M38.0085 6.63636H42.5227L48.5682 21.392H48.8068L54.8523 6.63636H59.3665V27H55.8267V13.0099H55.6378L50.0099 26.9403H47.3651L41.7372 12.9801H41.5483V27H38.0085V6.63636ZM67.6193 27.3082C66.6515 27.3082 65.7798 27.1359 65.0043 26.7912C64.2353 26.4399 63.6255 25.9228 63.1747 25.2401C62.7306 24.5573 62.5085 23.7154 62.5085 22.7145C62.5085 21.8527 62.6676 21.1402 62.9858 20.5767C63.304 20.0133 63.7382 19.5625 64.2884 19.2244C64.8385 18.8864 65.4583 18.6312 66.1477 18.4588C66.8438 18.2798 67.563 18.1506 68.3054 18.071C69.2003 17.9782 69.9261 17.8954 70.483 17.8224C71.0398 17.7429 71.4441 17.6236 71.696 17.4645C71.9545 17.2988 72.0838 17.0436 72.0838 16.6989V16.6392C72.0838 15.8902 71.8617 15.3101 71.4176 14.8991C70.9735 14.4882 70.3338 14.2827 69.4986 14.2827C68.617 14.2827 67.9176 14.4749 67.4006 14.8594C66.8902 15.2438 66.5455 15.6979 66.3665 16.2216L63.0057 15.7443C63.2708 14.8163 63.7083 14.0407 64.3182 13.4176C64.928 12.7879 65.6738 12.3172 66.5554 12.0057C67.437 11.6875 68.4115 11.5284 69.4787 11.5284C70.2145 11.5284 70.947 11.6146 71.6761 11.7869C72.4053 11.9593 73.0715 12.2443 73.6747 12.642C74.2779 13.0331 74.7618 13.5668 75.1264 14.2429C75.4976 14.919 75.6832 15.7642 75.6832 16.7784V27H72.223V24.902H72.1037C71.8849 25.3262 71.5767 25.724 71.179 26.0952C70.7879 26.4598 70.294 26.7547 69.6974 26.9801C69.1075 27.1989 68.4148 27.3082 67.6193 27.3082ZM68.554 24.6634C69.2765 24.6634 69.9029 24.5208 70.4332 24.2358C70.9635 23.9441 71.3712 23.5597 71.6562 23.0824C71.9479 22.6051 72.0938 22.0848 72.0938 21.5213V19.7216C71.9811 19.8144 71.7888 19.9006 71.517 19.9801C71.2519 20.0597 70.9536 20.1293 70.6222 20.1889C70.2907 20.2486 69.9626 20.3016 69.6378 20.348C69.313 20.3944 69.0313 20.4342 68.7926 20.4673C68.2557 20.5402 67.7751 20.6596 67.3509 20.8253C66.9266 20.991 66.5919 21.223 66.3466 21.5213C66.1013 21.813 65.9787 22.1908 65.9787 22.6548C65.9787 23.3177 66.2206 23.8182 66.7045 24.1562C67.1884 24.4943 67.8049 24.6634 68.554 24.6634ZM86.929 11.7273V14.5114H78.1491V11.7273H86.929ZM80.3168 8.06818H83.9162V22.4062C83.9162 22.8902 83.9891 23.2614 84.1349 23.5199C84.2874 23.7718 84.4863 23.9441 84.7315 24.0369C84.9768 24.1297 85.2486 24.1761 85.5469 24.1761C85.7723 24.1761 85.9777 24.1596 86.1634 24.1264C86.3556 24.0933 86.5014 24.0634 86.6009 24.0369L87.2074 26.8509C87.0152 26.9171 86.7401 26.9901 86.3821 27.0696C86.0308 27.1491 85.5999 27.1955 85.0895 27.2088C84.188 27.2353 83.3759 27.0994 82.6534 26.8011C81.9309 26.4962 81.3575 26.0256 80.9332 25.3892C80.5156 24.7528 80.3101 23.9574 80.3168 23.0028V8.06818ZM89.9393 27V11.7273H93.4293V14.2727H93.5884C93.8668 13.3911 94.3441 12.7116 95.0202 12.2344C95.703 11.7505 96.4819 11.5085 97.3569 11.5085C97.5558 11.5085 97.7778 11.5185 98.0231 11.5384C98.275 11.5516 98.4838 11.5748 98.6495 11.608V14.919C98.497 14.866 98.2551 14.8196 97.9237 14.7798C97.5988 14.7334 97.284 14.7102 96.979 14.7102C96.3228 14.7102 95.7328 14.8527 95.2092 15.1378C94.6921 15.4162 94.2844 15.804 93.9862 16.3011C93.6879 16.7983 93.5387 17.3717 93.5387 18.0213V27H89.9393ZM101.041 27V11.7273H104.64V27H101.041ZM102.85 9.55966C102.28 9.55966 101.79 9.37074 101.379 8.9929C100.968 8.60843 100.762 8.14773 100.762 7.61079C100.762 7.06723 100.968 6.60653 101.379 6.22869C101.79 5.84422 102.28 5.65199 102.85 5.65199C103.427 5.65199 103.918 5.84422 104.322 6.22869C104.733 6.60653 104.939 7.06723 104.939 7.61079C104.939 8.14773 104.733 8.60843 104.322 8.9929C103.918 9.37074 103.427 9.55966 102.85 9.55966ZM111.285 11.7273L114.367 17.3651L117.499 11.7273H121.308L116.704 19.3636L121.387 27H117.599L114.367 21.5014L111.165 27H107.347L112.001 19.3636L107.467 11.7273H111.285Z" fill="#FAFBFC"/>
</svg>
