<svg width="47" height="132" viewBox="0 0 47 132" fill="none" xmlns="http://www.w3.org/2000/svg">
<g clip-path="url(#clip0_16_2049)">
<path d="M21.7039 69.1427C22.216 69.2897 22.5408 69.8785 22.4538 70.4852L22.451 70.4983C22.4219 70.6855 22.3826 70.9196 22.3321 71.191C22.2974 71.3727 22.2609 71.5702 22.216 71.779C22.171 71.9887 22.1233 72.2143 22.0709 72.4511C22.0269 72.6571 21.9763 72.8724 21.9258 73.0952L21.8097 73.5914C21.6805 74.1269 21.5401 74.6961 21.3875 75.284C21.1974 76.017 21.0364 76.2763 20.8201 77.0271C20.6891 77.4802 20.5571 77.9259 20.4195 78.364C20.2453 78.926 20.0605 79.4847 19.8653 80.0397C19.6249 80.7432 19.3483 81.4337 19.0367 82.1087C18.5855 83.0542 18.3327 84.6448 18.1792 85.6764C18.1184 86.0893 18.0706 86.4993 18.0369 86.8991C17.9836 87.5001 17.9527 88.0786 17.9236 88.6122C17.9049 88.9661 17.8834 89.3013 17.86 89.6102C17.8094 90.2262 17.7383 90.7308 17.5932 91.0669C17.4846 91.3196 17.3872 91.4882 17.303 91.6361C17.2316 91.7515 17.1714 91.8734 17.1232 92.0002C17.0657 92.1602 17.0295 92.327 17.0156 92.4964C17.0053 92.5816 16.9996 92.6743 16.994 92.7791C16.9912 92.884 16.9893 93.001 16.9893 93.1302C16.9912 93.9128 17.0867 95.1916 17.303 97.4609C17.8806 103.517 15.5748 103.852 14.4214 110.918C14.2055 112.03 14.0251 113.149 13.8803 114.273C13.7747 115.101 13.687 115.932 13.6173 116.764C13.5723 117.307 13.5358 117.833 13.5087 118.341C13.4702 119.053 13.4499 119.766 13.4478 120.479C13.4478 120.698 13.4506 120.906 13.4553 121.11C13.4684 121.72 13.503 122.256 13.5555 122.697C13.6266 123.285 13.6453 123.791 13.6191 124.221C13.6004 124.545 13.5536 124.825 13.4881 125.071C13.3739 125.478 13.2025 125.783 12.9891 126.008C12.825 126.179 12.6248 126.312 12.403 126.396C11.6457 126.688 10.6693 126.984 9.66475 128.179C9.511 128.362 9.36634 128.552 9.2313 128.749C8.99401 129.103 8.7211 129.433 8.41683 129.732C8.19134 129.946 7.94518 130.138 7.68194 130.305C7.21573 130.597 6.78322 130.766 6.34977 131.102C6.34977 131.105 6.34696 131.105 6.34696 131.105C6.24679 131.176 6.15786 131.241 6.06798 131.303L6.00432 131.346C5.91726 131.405 5.83581 131.463 5.75624 131.512L5.72815 131.53C5.64507 131.582 5.56111 131.632 5.47632 131.681C5.41214 131.72 5.34623 131.756 5.27879 131.788C5.26569 131.795 5.25445 131.798 5.24415 131.804C5.19173 131.829 5.13837 131.854 5.08875 131.875C5.02539 131.901 4.96106 131.925 4.8959 131.946L4.86126 131.955C4.81977 131.967 4.77756 131.976 4.73488 131.983C4.72926 131.983 4.72177 131.986 4.71335 131.986C4.66654 131.993 4.62347 131.995 4.58228 131.995H4.54764C4.52611 131.995 4.50271 131.995 4.48211 131.992C4.46807 131.992 4.45496 131.992 4.44466 131.989C4.42159 131.987 4.39874 131.982 4.37632 131.977C4.3679 131.974 4.3576 131.974 4.34918 131.97C4.31796 131.962 4.2873 131.952 4.25743 131.94L4.2359 131.931C4.21249 131.919 4.18909 131.909 4.16475 131.897L4.13292 131.878C4.11334 131.868 4.09428 131.857 4.07581 131.845L4.04118 131.823C4.02052 131.81 4.00023 131.797 3.98032 131.783L3.9513 131.761C3.92356 131.741 3.89639 131.721 3.86986 131.699C3.86424 131.699 3.86143 131.697 3.85862 131.694C3.83054 131.669 3.7959 131.644 3.76407 131.616L3.72381 131.582C3.70041 131.567 3.67981 131.549 3.65828 131.53C3.62645 131.506 3.59743 131.478 3.5656 131.453L3.52067 131.416C3.49111 131.391 3.46115 131.366 3.43079 131.342C3.4205 131.333 3.41207 131.327 3.40271 131.318C3.35964 131.287 3.31845 131.253 3.27539 131.219C3.26782 131.213 3.26001 131.206 3.25198 131.201C3.21735 131.172 3.18084 131.145 3.14339 131.117C3.12747 131.105 3.11156 131.096 3.09658 131.083C3.06475 131.059 3.03292 131.038 2.99828 131.012L2.94305 130.976C2.90841 130.951 2.86909 130.926 2.83258 130.902C2.81667 130.89 2.80075 130.88 2.78203 130.868C2.72398 130.831 2.66594 130.797 2.60603 130.76C2.17258 130.508 1.94322 130.255 1.88518 129.983C1.87683 129.939 1.87244 129.894 1.87207 129.849C1.87207 129.713 1.9142 129.568 1.99377 129.417C2.07335 129.266 2.1913 129.106 2.34203 128.94C2.49462 128.77 2.67905 128.595 2.89624 128.403C3.11156 128.213 3.32875 128 3.55062 127.766C3.7725 127.533 3.99998 127.276 4.23871 127.003C4.31828 126.913 4.39973 126.817 4.48211 126.722C4.72739 126.435 4.98764 126.13 5.26849 125.807C5.89283 125.081 6.54295 124.377 7.2176 123.697C8.8559 122.059 9.35488 120.417 9.32866 119.139C9.32176 118.862 9.29012 118.587 9.23411 118.316C9.17199 117.831 9.11551 117.346 9.06466 116.859C8.94832 115.739 8.85406 114.617 8.78194 113.493C8.70449 112.287 8.64644 111.081 8.60781 109.874C8.44773 104.93 8.5816 99.9334 8.94296 96.7794C8.98041 96.1915 9.03003 95.6644 9.08807 95.1907C9.16472 94.5765 9.2678 93.9659 9.397 93.3605C9.47377 93.016 9.5496 92.7014 9.62636 92.4084C9.66381 92.2642 9.70032 92.1219 9.73683 91.9871C9.75556 91.916 9.77147 91.8514 9.79019 91.784C9.87445 91.4507 9.95402 91.1399 10.0149 90.8225C10.028 90.7579 10.0383 90.6962 10.0495 90.6316C10.1431 90.0586 10.1778 89.4613 10.0963 88.703C10.0629 88.5617 10.0357 88.419 10.0149 88.2752C9.95311 87.8573 9.93367 87.4342 9.95683 87.0123C9.96713 86.7352 9.99428 86.4581 10.028 86.1838C10.0776 85.7719 10.1459 85.3581 10.2124 84.9462C10.2573 84.6691 10.2995 84.3939 10.336 84.1149C10.4296 83.4184 10.4736 82.7106 10.3837 81.9739C9.93811 76.2379 10.1834 69.4573 10.8537 62.993C10.8818 62.7065 11.1944 62.6204 11.3396 62.8507C13.9496 67.0316 19.2184 68.4041 21.7039 69.1427ZM35.4693 62.8507C35.6135 62.6204 35.9252 62.7065 35.9543 62.993C36.6246 69.4582 36.8698 76.2389 36.4242 81.9739C36.3344 82.7097 36.3793 83.4184 36.471 84.1149C36.5085 84.3948 36.5506 84.6691 36.5955 84.9462C36.6611 85.3581 36.7304 85.771 36.78 86.1838C36.8146 86.4581 36.8408 86.7352 36.8511 87.0123C36.8648 87.2916 36.8613 87.5714 36.8408 87.8502C36.8188 88.1376 36.7756 88.423 36.7116 88.704C36.6288 89.4101 36.6562 90.1248 36.7931 90.8225C36.8539 91.1399 36.9335 91.4507 37.0178 91.784C37.0365 91.8514 37.0524 91.9151 37.0711 91.9871C37.1076 92.1219 37.1451 92.2633 37.1816 92.4084C37.2584 92.7014 37.3342 93.016 37.4109 93.3605C37.4705 93.641 37.5251 93.9225 37.5748 94.2049C37.6272 94.5064 37.6749 94.8359 37.7199 95.1907C37.7779 95.6644 37.8275 96.1915 37.865 96.7794C38.2264 99.9334 38.3612 104.93 38.2001 109.874C38.1615 111.081 38.1035 112.287 38.026 113.493C37.9543 114.617 37.86 115.739 37.7433 116.859C37.6927 117.346 37.6365 117.831 37.5748 118.316C37.5214 118.569 37.4877 118.846 37.4793 119.139C37.4531 120.417 37.9511 122.059 39.5904 123.697C40.3468 124.455 40.9806 125.163 41.5395 125.807C41.8203 126.13 42.0806 126.435 42.3258 126.722C42.4082 126.817 42.4897 126.913 42.5692 127.003C42.8089 127.276 43.0364 127.533 43.2573 127.766C43.4792 128 43.6955 128.213 43.9126 128.403C44.128 128.594 44.3133 128.77 44.4659 128.94C44.6166 129.106 44.7355 129.266 44.8142 129.417C44.8928 129.568 44.9359 129.713 44.9359 129.849C44.9355 129.894 44.9311 129.939 44.9228 129.983C44.8647 130.255 44.6354 130.508 44.2019 130.76C44.142 130.797 44.084 130.831 44.0259 130.868C44.0072 130.88 43.9913 130.89 43.9754 130.902C43.9379 130.926 43.8986 130.951 43.8649 130.976L43.8087 131.012C43.775 131.038 43.7432 131.059 43.7123 131.083L43.6646 131.117C43.6271 131.145 43.5897 131.172 43.556 131.201C43.5479 131.206 43.5401 131.213 43.5326 131.219C43.4904 131.253 43.4483 131.287 43.4062 131.318L43.3772 131.342C43.3468 131.366 43.3168 131.391 43.2873 131.416L43.2424 131.453C43.2105 131.478 43.1815 131.506 43.1497 131.53C43.1294 131.549 43.1074 131.567 43.0841 131.582L43.0439 131.616C43.013 131.644 42.9783 131.669 42.9493 131.694C42.9465 131.697 42.9437 131.699 42.939 131.699L42.8566 131.761L42.8286 131.783C42.8089 131.798 42.7882 131.811 42.7668 131.823L42.7331 131.845C42.7143 131.857 42.6949 131.868 42.675 131.878L42.6432 131.897C42.6189 131.909 42.5955 131.919 42.5721 131.931L42.5505 131.94C42.5203 131.952 42.4894 131.962 42.4578 131.97C42.4504 131.974 42.4391 131.974 42.4316 131.977C42.4092 131.982 42.3864 131.987 42.3633 131.989C42.351 131.991 42.3384 131.992 42.3258 131.992C42.3052 131.995 42.2818 131.995 42.2603 131.995H42.2266C42.1835 131.995 42.1423 131.992 42.0946 131.986C42.0862 131.986 42.0787 131.983 42.0731 131.983C42.0304 131.976 41.9882 131.967 41.9467 131.955L41.9121 131.946C41.8466 131.926 41.7823 131.902 41.7192 131.875C41.6696 131.854 41.6162 131.829 41.5638 131.804C41.5526 131.798 41.5423 131.795 41.5292 131.788C41.4618 131.755 41.3959 131.719 41.3316 131.681L41.2811 131.654C41.2174 131.616 41.15 131.573 41.0807 131.53L41.0517 131.512C40.9721 131.463 40.8907 131.405 40.8036 131.346L40.74 131.303C40.6501 131.242 40.5612 131.176 40.461 131.105C40.461 131.105 40.4582 131.105 40.4582 131.102C40.0257 130.766 39.5922 130.597 39.126 130.305C39.002 130.227 38.882 130.144 38.7665 130.055C38.6362 129.953 38.5112 129.846 38.3921 129.732C38.0876 129.433 37.8144 129.103 37.5766 128.749C37.4419 128.552 37.2972 128.362 37.1432 128.179C36.1378 126.984 35.1623 126.688 34.4049 126.396C34.1831 126.312 33.9829 126.179 33.8189 126.008C33.6054 125.783 33.4341 125.478 33.3208 125.071C33.2476 124.793 33.2034 124.509 33.1888 124.221C33.1626 123.791 33.1813 123.285 33.2525 122.697C33.3049 122.256 33.3386 121.72 33.3527 121.11C33.3573 120.907 33.3601 120.698 33.3601 120.479C33.3601 119.823 33.3386 119.105 33.2993 118.341C33.2712 117.815 33.235 117.289 33.1907 116.764C33.1208 115.932 33.0331 115.101 32.9276 114.273C32.8192 113.428 32.6906 112.586 32.5419 111.747C32.4914 111.47 32.4418 111.192 32.3856 110.918C31.2332 103.852 28.9274 103.517 29.505 97.4609C29.7203 95.1916 29.8167 93.9128 29.8186 93.1302C29.8186 93.001 29.8167 92.884 29.8139 92.7791C29.81 92.6844 29.8028 92.5898 29.7924 92.4955C29.7849 92.4191 29.7737 92.3432 29.7587 92.268C29.7404 92.177 29.7154 92.0875 29.6838 92.0002C29.6359 91.8734 29.5761 91.7515 29.505 91.6361C29.4207 91.4891 29.3234 91.3196 29.2148 91.0669C29.0697 90.7308 28.9985 90.2262 28.948 89.6102C28.9226 89.2778 28.9014 88.9451 28.8843 88.6122C28.8567 88.0406 28.8192 87.4694 28.772 86.8991C28.7366 86.4902 28.6888 86.0824 28.6287 85.6764C28.4752 84.6448 28.2224 83.0551 27.7712 82.1096C27.4598 81.4343 27.1833 80.7434 26.9427 80.0397C26.7473 79.4847 26.5626 78.926 26.3885 78.364C26.2503 77.9198 26.1168 77.4741 25.9878 77.0271C25.7715 76.2754 25.6105 76.017 25.4205 75.284C25.2747 74.7208 25.1343 74.1563 24.9992 73.5905L24.8822 73.0943C24.8326 72.8733 24.782 72.6571 24.7371 72.4511C24.6837 72.2133 24.6369 71.9896 24.592 71.779C24.5023 71.3542 24.4239 70.9272 24.357 70.4983L24.3542 70.4852C24.2671 69.8785 24.592 69.2906 25.1031 69.1427C27.5905 68.4031 32.8593 67.0298 35.4693 62.8507Z" fill="#B5B9BD"/>
<path opacity="0.75" d="M35.7374 59.7585C35.6648 59.3739 35.588 58.99 35.5071 58.607C35.2141 57.2168 34.8686 56.7094 34.5335 55.4858L34.4792 55.2855C34.2302 54.3783 33.9868 53.5217 33.7817 52.7241C33.6455 52.2059 33.5238 51.6839 33.4166 51.1588C33.3698 50.9126 33.3258 50.6748 33.2903 50.4427C33.239 50.1216 33.2037 49.7983 33.1845 49.4737C33.1789 49.3642 33.1732 49.2547 33.1732 49.1498C33.1676 48.3503 33.3174 47.6819 33.6966 47.1614C33.8451 46.9483 33.979 46.7252 34.0972 46.4939C34.1406 46.4096 34.1821 46.3244 34.2217 46.2383C34.3045 46.0575 34.3819 45.8742 34.4539 45.6888C34.5943 45.3293 34.7226 44.9427 34.8377 44.5485C34.8499 44.5055 34.864 44.4643 34.8752 44.4222C34.9248 44.2527 34.9707 44.0833 35.0156 43.911C35.0269 43.8736 35.0343 43.8352 35.0456 43.7968C35.2397 43.031 35.403 42.2577 35.5352 41.4788C35.5914 40.1954 34.028 39.981 31.2213 40.2057C31.1869 40.2131 31.1517 40.2163 31.1165 40.215C30.4004 40.2973 29.6803 40.3385 28.9595 40.3386H28.894L28.8266 40.3311C26.8213 40.1214 25.6904 39.6486 24.8666 39.3023C24.2281 39.0354 23.8986 38.9062 23.4286 38.9062C22.9577 38.9062 22.6292 39.0354 21.9907 39.3023C21.1669 39.6486 20.036 40.1205 18.0307 40.3311L17.9642 40.3386H17.8978C17.177 40.3383 16.4568 40.2967 15.7408 40.2141C15.7056 40.2155 15.6704 40.2124 15.636 40.2047C12.8284 39.98 11.2659 40.1954 11.3212 41.4788C11.4534 42.2574 11.6168 43.0304 11.8108 43.7959C11.8229 43.8352 11.8304 43.8726 11.8417 43.911C11.8866 44.0833 11.9334 44.2527 11.9821 44.4222C11.9933 44.4652 12.0074 44.5055 12.0186 44.5485C12.1347 44.9417 12.262 45.3293 12.4024 45.6888C12.4773 45.8798 12.555 46.0633 12.6355 46.2383C12.6767 46.3263 12.716 46.4097 12.76 46.4939C12.8778 46.7258 13.0117 46.9492 13.1607 47.1623C13.5399 47.6819 13.6897 48.3503 13.684 49.1498C13.6741 49.5829 13.6353 50.0148 13.568 50.4427C13.4881 50.9385 13.3901 51.4313 13.274 51.92C13.2132 52.1821 13.1467 52.448 13.0755 52.7251C12.8705 53.5208 12.6262 54.3783 12.3781 55.2855C12.3594 55.352 12.3425 55.4194 12.3229 55.4858C11.9886 56.7103 11.6432 57.2177 11.3492 58.608C11.2697 58.9824 11.1948 59.3663 11.1199 59.7585C10.9926 60.4382 11.2229 61.1375 11.7565 61.6505C14.8973 65.2754 19.9292 67.7515 23.4268 67.7562H23.4324C26.9309 67.7515 31.9618 65.2754 35.1027 61.6505C35.6344 61.1375 35.8638 60.4382 35.7374 59.7585Z" fill="#2E9BFA"/>
<path opacity="0.75" d="M8.54612 35.7856C8.21097 34.944 8.03871 34.0097 8.03871 32.993C8.03871 32.3003 8.13233 31.614 8.28024 30.9381C8.43939 30.2173 8.66127 29.5123 8.92433 28.8224C9.19582 28.1109 9.51131 27.4125 9.85675 26.7338C10.1975 26.0597 10.5682 25.4044 10.9596 24.7585C11.3275 24.1537 11.7141 23.563 12.1167 22.9835C12.4219 22.5435 12.7448 22.1175 13.0659 21.6916C13.1483 21.582 13.05 21.4248 12.918 21.4575C12.3971 21.5757 11.8862 21.7347 11.3902 21.9331C11.1936 22.0136 10.9736 22.0904 10.7948 22.2037C10.762 22.2196 10.7293 22.2336 10.6965 22.2505C9.93697 22.6006 9.21544 23.0278 8.54331 23.5255C8.17535 23.798 7.8263 24.0952 7.49854 24.4149C6.78814 25.1022 6.19574 25.9018 5.7451 26.7815C5.41373 27.4333 5.16407 28.1235 5.00178 28.8364C4.86652 29.4333 4.78568 30.0411 4.76025 30.6526C4.76025 33.0539 4.76025 34.255 3.56195 36.6563C2.36365 39.0575 2.36365 42.6599 2.36365 44.4592C2.36365 45.4731 2.07812 46.3915 1.77574 47.3745L1.67463 47.704C1.60482 47.93 1.53897 48.1572 1.4771 48.3855C1.34362 48.8707 1.23921 49.3633 1.16442 49.8609C1.00527 50.9768 0.846119 53.2789 0.777779 55.5987C0.769353 55.8702 0.763736 56.1454 0.756247 56.4141C0.749694 56.6856 0.745013 56.9562 0.745013 57.222C0.742204 57.4888 0.742204 57.75 0.742204 58.0084C0.740574 58.496 0.749938 58.9836 0.770289 59.4707C0.777779 59.6982 0.789013 59.9154 0.799311 60.1214C0.81897 60.4322 0.840502 60.7177 0.868587 60.9705C0.906034 61.3075 0.928502 61.6464 0.942545 61.9815C0.948162 62.15 0.950034 62.3167 0.952842 62.4842C0.955651 64.6571 0.561523 66.7635 0.561523 68.4683C0.561523 69.191 0.632672 70.1964 0.847055 71.2047C0.945353 71.6634 1.07174 72.1221 1.2365 72.5565C1.36757 72.9029 1.5211 73.2352 1.70271 73.5348C2.24569 74.4363 3.03301 75.0701 4.15735 75.0701C4.75556 75.0701 4.75556 74.471 4.15735 73.5704C3.55914 72.6698 3.55914 71.1691 3.55914 70.2676C3.55914 69.9305 3.60033 69.6357 3.66867 69.3969C3.75948 69.0814 3.89897 68.8661 4.04501 68.795C4.07951 68.7763 4.11814 68.7667 4.15735 68.7669C4.25097 68.7669 4.34365 68.9129 4.45599 69.1329L4.56271 69.3473C4.6011 69.4241 4.63948 69.5065 4.68442 69.5917L4.77148 69.7648C4.83233 69.88 4.90067 69.9989 4.97182 70.1168C5.00739 70.174 5.04671 70.232 5.08697 70.2891C5.28932 70.5908 5.56254 70.8383 5.88271 71.01L5.93233 71.0399C6.00348 71.0774 6.06995 71.1148 6.13548 71.1438L6.15701 71.1532C6.21113 71.1753 6.2661 71.1953 6.32178 71.2131L6.35922 71.2234C6.40867 71.2371 6.4596 71.2446 6.51088 71.2459C6.52212 71.2459 6.53242 71.2431 6.54084 71.2431C6.56518 71.2403 6.59046 71.2374 6.61199 71.2318L6.64569 71.2206C6.66447 71.2124 6.68185 71.2014 6.69718 71.1878C6.70561 71.1794 6.71403 71.1738 6.72152 71.1654C6.73811 71.147 6.75113 71.1258 6.7599 71.1026C6.76271 71.0942 6.76833 71.0886 6.77395 71.0774C6.78828 71.0386 6.79649 70.9979 6.79829 70.9566V70.921C6.8011 70.8826 6.79829 70.8414 6.79548 70.7974C6.78727 70.7024 6.77003 70.6084 6.74399 70.5166C6.72133 70.4314 6.69541 70.3471 6.66629 70.2638C6.63633 70.173 6.60076 70.0766 6.55956 69.9699C6.33488 69.4072 6.23565 68.7613 6.12331 68.1237C6.07467 67.8299 6.0125 67.5384 5.93701 67.2503C5.90609 67.1297 5.87049 67.0105 5.83029 66.8927C5.63276 66.3122 5.32288 65.8048 4.76025 65.4697C4.19854 65.1346 3.97293 64.541 3.94203 63.8539C3.92331 63.4176 3.98603 62.9392 4.08808 62.4665C4.09837 62.4225 4.1068 62.3757 4.11803 62.3317C4.16484 62.136 4.21633 61.9441 4.27157 61.7512L4.32118 61.5846C4.46161 61.139 4.61701 60.7186 4.75744 60.3676C5.35471 58.8669 7.75318 52.5637 7.75318 49.8628C7.75318 48.7656 7.70263 48.1122 7.7251 47.6254C7.73198 47.4553 7.75328 47.2862 7.78875 47.1198L7.8131 47.0262C7.82901 46.9663 7.85054 46.9054 7.87301 46.8446C8.00407 46.5123 8.23812 46.1743 8.6519 45.6575C8.69029 45.6107 8.7268 45.562 8.76424 45.5096C8.83914 45.4048 8.90935 45.2896 8.98143 45.1632C9.05258 45.0397 9.12092 44.9048 9.18927 44.7654C9.25761 44.6249 9.32407 44.4761 9.38961 44.3225C9.55812 43.9265 9.71352 43.4922 9.85582 43.0587C10.176 41.9915 10.4802 40.6762 8.54705 35.7847L8.54612 35.7856ZM38.2686 35.7856C38.2658 35.7856 38.2658 35.7856 38.2686 35.7856C38.6028 34.944 38.776 34.0097 38.776 32.993C38.776 32.3003 38.6824 31.614 38.5344 30.9381C38.3753 30.2173 38.1534 29.5123 37.8904 28.8224C37.6189 28.1109 37.3025 27.4125 36.957 26.7338C36.6172 26.0597 36.2474 25.4044 35.8551 24.7585C35.4873 24.1551 35.1012 23.5632 34.6971 22.9835C34.3928 22.5435 34.0699 22.1175 33.7478 21.6916C33.6664 21.582 33.7647 21.4248 33.8967 21.4575C34.4176 21.5757 34.9285 21.7347 35.4245 21.9331C35.6211 22.0136 35.8411 22.0904 36.019 22.2037L36.1182 22.2505C36.8777 22.6006 37.5993 23.0278 38.2714 23.5255C38.6309 23.7923 38.9819 24.0882 39.3162 24.4149C40.0265 25.1022 40.6189 25.9018 41.0696 26.7815C41.3851 27.3994 41.6407 28.0837 41.8129 28.8364C41.9412 29.4028 42.0264 30.0066 42.0535 30.6526C42.0535 33.0539 42.0535 34.255 43.2527 36.6563C44.451 39.0575 44.451 42.6599 44.451 44.4592C44.451 45.4731 44.7366 46.3915 45.039 47.3745L45.1401 47.704C45.2084 47.9268 45.2749 48.1524 45.3367 48.3855C45.4706 48.8706 45.575 49.3633 45.6493 49.8609C45.8094 50.9768 45.9676 53.2798 46.0369 55.5987C46.0453 55.8702 46.051 56.1454 46.0584 56.4141C46.0641 56.6856 46.0697 56.9562 46.0697 57.222C46.0725 57.4888 46.0725 57.75 46.0725 58.0084C46.0725 58.1376 46.0725 58.264 46.0697 58.3904C46.0676 58.7503 46.0595 59.1101 46.0453 59.4698C46.037 59.6871 46.0267 59.9043 46.0144 60.1214C45.9957 60.4322 45.9733 60.7177 45.9461 60.9705C45.9087 61.3075 45.8862 61.6464 45.8722 61.9815C45.8665 62.15 45.8647 62.3167 45.8619 62.4842C45.8478 64.6637 46.2457 66.7654 46.2457 68.4711C46.2457 69.1938 46.1745 70.2002 45.9602 71.2084C45.8619 71.6671 45.7355 72.1259 45.5707 72.5602C45.4447 72.8993 45.2887 73.2264 45.1045 73.5376C44.5615 74.4391 43.7742 75.0739 42.6499 75.0739C42.0516 75.0739 42.0516 74.4747 42.6499 73.5741C43.2481 72.6726 43.2481 71.1728 43.2481 70.2713C43.2481 69.9334 43.2069 69.6394 43.1385 69.4007C43.0477 69.0843 42.9082 68.8699 42.7631 68.7978C42.7285 68.7795 42.6899 68.7701 42.6508 68.7706C42.5572 68.7706 42.4636 68.9167 42.3512 69.1357L42.2445 69.3511C42.2061 69.4278 42.1677 69.5102 42.1228 69.5945C42.0966 69.6506 42.0666 69.7068 42.0357 69.7677C41.9724 69.8869 41.9056 70.0043 41.8354 70.1197C41.799 70.1787 41.7606 70.2364 41.7202 70.2928C41.518 70.5946 41.2447 70.8422 40.9245 71.0137L40.8749 71.0427C40.8037 71.0811 40.7382 71.1176 40.6727 71.1476L40.6502 71.156C40.5931 71.1803 40.5379 71.2 40.4854 71.2159C40.4723 71.2187 40.4611 71.2243 40.448 71.2271C40.3985 71.2408 40.3476 71.2483 40.2963 71.2496C40.286 71.2496 40.2748 71.2468 40.2664 71.2468C40.242 71.244 40.2167 71.2412 40.1952 71.2356C40.184 71.2328 40.1737 71.2271 40.1624 71.2243C40.1433 71.2163 40.1256 71.2052 40.11 71.1916L40.0857 71.17C40.0691 71.1514 40.056 71.1298 40.0473 71.1064C40.0445 71.0979 40.0389 71.0923 40.0333 71.082C40.0188 71.043 40.0106 71.0019 40.0089 70.9603V70.9248C40.0061 70.8873 40.0089 70.8452 40.0117 70.8012L40.0202 70.7357C40.0296 70.6629 40.0443 70.5909 40.0642 70.5203C40.0864 70.4351 40.112 70.3508 40.1409 70.2676C40.1709 70.1777 40.2064 70.0813 40.2476 69.9736C40.4723 69.411 40.5716 68.766 40.6839 68.1275C40.7363 67.8307 40.7934 67.5377 40.8711 67.254C40.9039 67.1323 40.9367 67.0125 40.9779 66.8964C41.1744 66.3169 41.4853 65.8086 42.047 65.4734C42.6096 65.1383 42.8343 64.5448 42.8652 63.8586C42.8839 63.4214 42.8212 62.943 42.7191 62.4702C42.7088 62.4262 42.7004 62.3794 42.6892 62.3354C42.6422 62.1412 42.591 61.9479 42.5356 61.7559L42.486 61.5874C42.3555 61.1765 42.21 60.7706 42.0498 60.3704C41.4525 58.8706 39.055 52.5674 39.055 49.8665C39.055 48.7703 39.1046 48.1159 39.083 47.6291C39.076 47.4591 39.0547 47.29 39.0194 47.1236C38.9972 47.0301 38.969 46.9382 38.9351 46.8483C38.8022 46.5169 38.57 46.179 38.1553 45.6622C38.0333 45.5059 37.9231 45.3407 37.8258 45.1679C37.7522 45.0373 37.6829 44.9042 37.6179 44.7691C37.5496 44.6287 37.4831 44.4808 37.4176 44.3263C37.2451 43.9115 37.0895 43.4899 36.9514 43.0625C36.6368 41.9915 36.3335 40.6762 38.2686 35.7856Z" fill="#2E9BFA"/>
<path opacity="0.75" d="M37.1058 31.2434C36.9223 30.3802 36.634 29.5395 36.2941 28.7232C35.9362 27.8771 35.5295 27.0526 35.0762 26.2536C34.6444 25.488 34.1806 24.7409 33.686 24.0143C33.1221 23.1826 32.5224 22.3758 31.8885 21.5961C31.5187 21.1674 30.7314 20.4886 29.0388 21.1093C29.0296 21.1128 29.0203 21.1156 29.0107 21.1177C28.9705 21.1337 28.9293 21.1533 28.8853 21.1692C27.9585 21.5343 27.0148 21.8648 26.0487 22.1232C25.1912 22.3535 24.2962 22.5538 23.4021 22.5538C22.5081 22.5538 21.614 22.3572 20.7556 22.1232C19.7933 21.8574 18.8463 21.5389 17.919 21.1692C17.8778 21.1533 17.8375 21.1337 17.7935 21.1177C17.7844 21.1144 17.775 21.1115 17.7655 21.1093C16.0757 20.4886 15.2855 21.1674 14.9158 21.5961C14.2803 22.3746 13.6806 23.1815 13.1183 24.0143C12.624 24.7409 12.1605 25.488 11.729 26.2536C11.2749 27.0521 10.8682 27.8768 10.5111 28.7232C10.1625 29.5361 9.89074 30.3798 9.69941 31.2434C9.57118 31.8189 9.50403 32.4063 9.49907 32.9959C9.49711 33.5208 9.55395 34.0442 9.66852 34.5565C9.78086 35.0377 9.94563 35.4805 10.1572 35.8868C10.4206 36.3858 10.7612 36.8402 11.1664 37.233C11.4954 37.551 11.859 37.8311 12.2505 38.068C12.6601 38.3179 13.0927 38.5279 13.5424 38.6953C13.8888 38.8263 14.2529 38.9387 14.6312 39.0323C14.8839 39.096 15.1414 39.1503 15.4044 39.1971C15.6684 39.2439 15.9371 39.2823 16.2114 39.3132C16.76 39.3731 17.3273 39.404 17.9124 39.404C21.1928 39.008 21.7517 37.7554 23.3984 37.7554C25.0442 37.7554 25.6031 39.008 28.8843 39.403C29.4685 39.403 30.0358 39.3731 30.5844 39.3132C30.8587 39.2823 31.1274 39.2439 31.3914 39.1971C31.6545 39.1503 31.9119 39.096 32.1647 39.0323C32.653 38.9119 33.131 38.7529 33.5942 38.5567C33.9227 38.4164 34.2408 38.2531 34.5463 38.068C34.9377 37.831 35.3013 37.5509 35.6304 37.233C36.0355 36.8402 36.3761 36.3858 36.6396 35.8868C36.8502 35.4805 37.014 35.0377 37.1264 34.5574C37.1826 34.3149 37.2256 34.065 37.2528 33.8066C37.3455 32.9499 37.2959 32.0838 37.1058 31.2434Z" fill="#2E9BFA"/>
<path d="M30.4031 9.48528V9.47123C30.3916 9.35434 30.3521 9.24194 30.2879 9.14357C30.2812 9.13845 30.2755 9.1321 30.2711 9.12485C30.2441 9.08905 30.2119 9.05749 30.1756 9.03123C30.17 9.02843 30.1672 9.02374 30.1615 9.02094C30.1101 8.98772 30.0535 8.96336 29.994 8.94885C29.9393 8.93441 29.8829 8.92717 29.8264 8.92732C29.8161 8.92732 29.8049 8.92732 29.7936 8.93013C29.7459 8.93072 29.6983 8.93542 29.6513 8.94417C29.6339 8.94705 29.6164 8.94955 29.5989 8.95166C29.5314 8.96633 29.4646 8.98382 29.3986 9.00409C29.4182 8.94885 29.4351 8.88613 29.451 8.82247C29.4837 8.69328 29.5109 8.54817 29.5352 8.3937C29.5493 8.31694 29.5605 8.23736 29.5717 8.15685C29.5933 7.99489 29.6092 7.82732 29.6232 7.66068C29.6317 7.57736 29.6373 7.49217 29.6429 7.40979C29.6541 7.24502 29.6644 7.08213 29.671 6.93234C29.6953 6.40434 29.6953 6.00366 29.6953 6.00366C29.6953 5.84077 29.686 5.67881 29.6757 5.52247C29.5764 3.93098 28.9866 2.60162 27.9934 1.64579C27.6125 1.28159 27.1804 0.975031 26.7108 0.73583C26.437 0.598889 26.1535 0.48218 25.8626 0.386638C25.6161 0.303169 25.3652 0.233472 25.1109 0.177872C24.7068 0.0932494 24.2968 0.0400407 23.8845 0.0187234C23.7259 0.00717275 23.567 0.00092813 23.408 0C23.2481 0.000560103 23.0882 0.00680518 22.9287 0.0187234C22.5164 0.0400407 22.1064 0.0932494 21.7023 0.177872C21.448 0.233605 21.197 0.303617 20.9506 0.387574C20.6596 0.481929 20.3763 0.598675 20.1033 0.736766C19.6203 0.983915 19.1924 1.28911 18.8189 1.64579C17.8266 2.60162 17.2368 3.93192 17.1375 5.52247C17.1263 5.68162 17.1188 5.84077 17.1188 6.00366C17.1213 6.47279 17.1384 6.94173 17.1703 7.40979L17.189 7.66068C17.2031 7.82826 17.2227 7.99583 17.2415 8.15685C17.2527 8.23736 17.263 8.31694 17.277 8.3937C17.3023 8.54817 17.3295 8.69328 17.3622 8.82247C17.3791 8.888 17.395 8.94885 17.4146 9.00409C17.3494 8.98154 17.2824 8.96432 17.2143 8.9526L17.1619 8.94417C17.1149 8.93578 17.0673 8.93108 17.0196 8.93013C17.0083 8.93013 16.9981 8.92732 16.9868 8.92732C16.8686 8.92674 16.7525 8.95916 16.6517 9.02094C16.6461 9.02374 16.6432 9.02936 16.6376 9.03217C16.6018 9.05898 16.5697 9.09047 16.5421 9.12579C16.5365 9.1314 16.5309 9.13608 16.5253 9.14451C16.4975 9.18573 16.4746 9.23002 16.4569 9.27651C16.4541 9.28775 16.4485 9.29804 16.4457 9.30647C16.4278 9.36022 16.4158 9.41579 16.4101 9.47217V9.48528C16.4038 9.55941 16.4038 9.63395 16.4101 9.70809C16.4158 9.77643 16.427 9.8457 16.4401 9.91966C16.4429 9.93277 16.4457 9.94962 16.4513 9.96272C16.4682 10.0404 16.4888 10.12 16.5169 10.2024C16.5348 10.2566 16.5505 10.3116 16.5637 10.3671C16.5637 10.3728 16.5665 10.3756 16.5665 10.3784C16.5805 10.4364 16.5946 10.4963 16.6077 10.56C16.6105 10.5675 16.6105 10.5769 16.6133 10.5815C16.6312 10.6591 16.6468 10.7371 16.6601 10.8156C16.6732 10.8839 16.6872 10.9523 16.6975 11.0243C16.7116 11.1011 16.7284 11.1779 16.7415 11.2546L16.7472 11.2855C16.7612 11.3595 16.7781 11.4363 16.794 11.513C16.7968 11.5214 16.7968 11.5299 16.7996 11.5411C16.8164 11.6179 16.8352 11.6937 16.8548 11.7714C16.8576 11.777 16.8576 11.7845 16.8604 11.7901C16.8989 11.9506 16.9474 12.1085 17.0055 12.2629V12.2657C17.0336 12.3378 17.0626 12.4089 17.0935 12.4754L17.101 12.4913C17.1319 12.555 17.1647 12.6177 17.2003 12.6757L17.2134 12.6973C17.2499 12.7525 17.2845 12.8049 17.3257 12.8536L17.3426 12.8761C17.3838 12.9229 17.4249 12.9669 17.4718 13.0043L17.4933 13.0212C17.5391 13.0584 17.5887 13.0907 17.6412 13.1176C17.6496 13.1232 17.6581 13.1251 17.6655 13.1279C17.7208 13.156 17.7751 13.1747 17.8387 13.1916C17.8472 13.1944 17.8556 13.1944 17.8631 13.1972C17.9289 13.2116 17.996 13.2188 18.0634 13.2187H18.0821C18.157 13.2187 18.2338 13.2112 18.3162 13.1944C18.3162 13.5876 18.3162 14.3262 18.4173 15.1098C18.4388 15.2802 18.4725 15.4665 18.5128 15.6565C18.7243 16.602 19.1587 17.5167 19.6156 17.9838C20.9075 19.3048 22.1695 20.2915 23.4089 20.2915C24.6484 20.2915 25.9104 19.3057 27.2023 17.9838C27.661 17.5139 28.0973 16.5983 28.3051 15.6565C28.3426 15.4665 28.38 15.2802 28.4006 15.1098C28.5026 14.3262 28.5026 13.5904 28.5026 13.1944C28.585 13.2112 28.6618 13.2187 28.7357 13.2187H28.7545C28.8218 13.2188 28.889 13.2116 28.9548 13.1972L28.9801 13.1916C29.0399 13.1773 29.0977 13.156 29.1523 13.1279L29.1767 13.1176C29.2291 13.0895 29.2787 13.0568 29.3255 13.0212L29.3471 13.0043C29.3939 12.9669 29.4351 12.922 29.4753 12.8761C29.4809 12.8667 29.4866 12.862 29.4922 12.8536C29.5334 12.804 29.5689 12.7525 29.6045 12.6973L29.6186 12.6757C29.6551 12.6164 29.688 12.5548 29.7169 12.4913L29.7253 12.4754C29.7552 12.4061 29.7852 12.3378 29.8133 12.2657V12.2638C29.8404 12.1889 29.8648 12.1103 29.89 12.0326C29.89 12.0307 29.89 12.0307 29.8929 12.0279L29.9584 11.7911C29.9612 11.7854 29.9612 11.777 29.964 11.7723C29.9827 11.6946 30.0014 11.6179 30.0183 11.5411C30.0211 11.5327 30.0211 11.5243 30.0239 11.513C30.0408 11.4363 30.0576 11.3623 30.0707 11.2855L30.0763 11.2556C30.0932 11.1788 30.1063 11.0992 30.1203 11.0243C30.1344 10.9532 30.1484 10.882 30.1587 10.8156L30.1672 10.7781C30.1803 10.7117 30.1915 10.6452 30.2046 10.5815C30.2074 10.574 30.2074 10.5656 30.2102 10.56L30.2514 10.3784C30.2514 10.3728 30.2542 10.3709 30.2542 10.3681C30.2711 10.3072 30.2851 10.2529 30.301 10.2033C30.3291 10.1209 30.3506 10.0404 30.3666 9.96366L30.3778 9.91966C30.3936 9.83737 30.4046 9.75422 30.4106 9.67064C30.4087 9.60698 30.4087 9.54332 30.4031 9.48621V9.48528Z" fill="#2E9BFA"/>
</g>
<defs>
<clipPath id="clip0_16_2049">
<rect width="46.8085" height="132" fill="white"/>
</clipPath>
</defs>
</svg>
